<svg width="288" height="155" viewBox="0 0 288 155" fill="none" xmlns="http://www.w3.org/2000/svg">
<path d="M18.2421 129.451L17.3438 133.945C17.2761 134.289 17.2053 134.638 17.1284 134.985C16.3776 134.83 15.5991 134.873 14.8703 135.111C15.4485 135.935 15.9667 136.799 16.4208 137.697C15.8547 139.436 15.0241 141.043 13.6335 142.206C12.7048 142.965 11.5955 143.473 10.4127 143.68C9.22985 143.888 8.01339 143.788 6.8806 143.39L6.92059 143.212C5.42542 140.319 6.23762 136.672 8.09582 134C9.04357 132.682 10.1665 131.499 11.4338 130.482C12.689 129.439 14.0458 128.503 15.3902 127.58C15.6921 127.373 16.0491 127.26 16.4156 127.257C16.782 127.253 17.1413 127.358 17.4474 127.559C17.7535 127.76 17.9927 128.047 18.1342 128.384C18.2758 128.721 18.3133 129.093 18.2421 129.451Z" fill="#E4E4E4"/>
<path d="M7.20052 154.203C6.82242 151.457 6.43354 148.675 6.69874 145.899C6.9344 143.434 7.68845 141.027 9.22423 139.052C10.0394 138.007 11.0312 137.11 12.1552 136.404C12.4484 136.22 12.7179 136.683 12.4262 136.867C10.4815 138.092 8.97732 139.902 8.13054 142.034C7.19529 144.406 7.04515 146.992 7.20759 149.511C7.30512 151.035 7.51155 152.548 7.71983 154.06C7.7366 154.129 7.72651 154.201 7.69162 154.262C7.65673 154.323 7.59969 154.369 7.53216 154.39C7.46347 154.408 7.39024 154.399 7.32838 154.364C7.26651 154.329 7.22101 154.271 7.20175 154.203L7.20052 154.203Z" fill="#F2F2F2"/>
<path d="M10.4454 16.4522C23.6242 16.2238 36.8045 16.1909 49.9862 16.3538C63.166 16.5176 76.3413 16.8779 89.5123 17.4348C96.903 17.7473 104.291 18.1217 111.676 18.558C112.269 18.593 112.267 17.6726 111.676 17.6377C98.5177 16.8614 85.3503 16.2805 72.1733 15.8951C58.9981 15.5106 45.8192 15.3228 32.6364 15.3315C25.239 15.3364 17.842 15.4032 10.4454 15.532C9.85215 15.5423 9.85027 16.4626 10.4454 16.4523V16.4522Z" fill="#E6E6E6"/>
<path d="M102.29 10.682L108.052 10.2544C108.641 10.2107 108.646 9.29007 108.052 9.33411L102.29 9.76176C101.701 9.80545 101.696 10.7261 102.29 10.682Z" fill="#E6E6E6"/>
<path d="M102.29 16.2036L108.052 15.7759C108.641 15.7322 108.646 14.8116 108.052 14.8557L102.29 15.2833C101.701 15.327 101.696 16.2476 102.29 16.2036Z" fill="#E6E6E6"/>
<path d="M101.856 13.682L110.049 14.4242C110.641 14.4778 110.637 13.5572 110.049 13.504L101.856 12.7618C101.265 12.7082 101.268 13.6288 101.856 13.682Z" fill="#E6E6E6"/>
<path d="M13.8559 9.44444C13.4551 9.44197 13.0625 9.55716 12.727 9.77566C12.3914 9.99415 12.1278 10.3063 11.969 10.6731C11.7913 11.0322 11.7365 11.4394 11.8128 11.8325C11.8892 12.2255 12.0926 12.5829 12.3919 12.8498C12.6733 13.0885 13.0107 13.2521 13.3728 13.3255C13.7348 13.3988 14.1095 13.3794 14.462 13.2691C14.8225 13.1436 15.1351 12.9097 15.3567 12.5998C15.5784 12.2898 15.6982 11.9189 15.6998 11.5382C15.7159 11.1159 15.6011 10.6988 15.3711 10.3437C15.1411 9.9887 14.807 9.7129 14.4143 9.55385C14.2963 9.52189 14.1704 9.53773 14.064 9.59793C13.9577 9.65813 13.8795 9.7578 13.8466 9.87522C13.8175 9.99277 13.8347 10.117 13.8946 10.2223C13.9546 10.3275 14.0528 10.4059 14.1689 10.4412C14.2493 10.4722 14.0954 10.4018 14.1705 10.4426C14.2014 10.4594 14.2329 10.4745 14.2632 10.4924C14.289 10.5077 14.3136 10.5243 14.3387 10.5406C14.4249 10.5967 14.2967 10.4995 14.3517 10.5499C14.3995 10.5936 14.4468 10.6362 14.4902 10.6845C14.5066 10.7027 14.5709 10.7534 14.5209 10.7179C14.4827 10.6908 14.5062 10.6972 14.5209 10.719C14.5321 10.7355 14.5439 10.7516 14.555 10.7682C14.5909 10.8225 14.6236 10.8789 14.6529 10.937C14.6597 10.9505 14.6659 10.9643 14.6728 10.9776C14.6857 11.0027 14.7044 11.0093 14.6741 10.9779C14.645 10.9478 14.6635 10.9499 14.6739 10.9788C14.6807 10.9978 14.6882 11.0166 14.6948 11.0356C14.7165 11.0977 14.7346 11.1609 14.7492 11.225C14.756 11.2546 14.7614 11.2844 14.7672 11.3142C14.7879 11.4199 14.7642 11.2485 14.7692 11.327C14.7734 11.3925 14.7782 11.4574 14.7771 11.5231C14.7766 11.5533 14.7752 11.5833 14.7731 11.6134C14.7721 11.6283 14.7704 11.6433 14.7694 11.6583C14.7646 11.7305 14.7645 11.6319 14.7746 11.6251C14.7535 11.6864 14.7395 11.7499 14.7329 11.8144C14.7246 11.843 14.7148 11.871 14.7056 11.8993C14.6735 11.998 14.7358 11.8455 14.7016 11.9129C14.6734 11.9709 14.6419 12.0272 14.6073 12.0816C14.5922 12.1043 14.5355 12.1558 14.5819 12.12C14.6322 12.0811 14.5555 12.148 14.5392 12.1652C14.5181 12.1873 14.4963 12.2087 14.4737 12.2292C14.4592 12.2433 14.444 12.2566 14.4279 12.2689C14.425 12.2674 14.505 12.2156 14.4619 12.243C14.4071 12.2779 14.3552 12.3152 14.2974 12.3456C14.2906 12.3491 14.2168 12.3832 14.2171 12.3844C14.2139 12.372 14.312 12.35 14.2447 12.3717C14.2305 12.3762 14.2166 12.3817 14.2025 12.3865C14.1412 12.4071 14.0786 12.4237 14.0151 12.4363C14.0005 12.4392 13.9852 12.4406 13.9708 12.4443C13.9231 12.4566 14.0164 12.4371 14.0192 12.4387C13.984 12.4372 13.9487 12.4403 13.9142 12.448C13.8487 12.4517 13.7831 12.4517 13.7176 12.448C13.7025 12.4471 13.6874 12.4456 13.6722 12.4447C13.6371 12.4427 13.6112 12.4174 13.658 12.4448C13.6941 12.466 13.6911 12.4506 13.6592 12.4447C13.6442 12.4419 13.6292 12.4396 13.6142 12.4368C13.5494 12.4247 13.4853 12.409 13.4222 12.3899C13.3883 12.3796 13.355 12.3676 13.3216 12.3559C13.307 12.3517 13.2928 12.3463 13.2791 12.3396C13.2789 12.3358 13.3654 12.3809 13.3197 12.3563C13.2621 12.3253 13.2025 12.2994 13.1462 12.2655C13.1162 12.2474 13.0873 12.2278 13.0581 12.2085C13.0453 12.2007 13.033 12.192 13.0216 12.1824C13.0225 12.1785 13.0931 12.2437 13.0561 12.2085C13.0092 12.164 12.9591 12.1241 12.9147 12.0767C12.9046 12.0659 12.895 12.0545 12.8849 12.0436L12.8751 12.0325C12.85 12.002 12.8496 12.0021 12.8737 12.0329C12.8981 12.0401 12.897 12.0669 12.8738 12.0321C12.8655 12.0197 12.8567 12.0077 12.8485 11.9953C12.811 11.9421 12.7791 11.8852 12.7531 11.8255C12.7554 11.8237 12.7931 11.9362 12.7642 11.8513C12.7588 11.8353 12.7527 11.8195 12.7473 11.8034C12.7367 11.7716 12.7274 11.7393 12.7193 11.7067C12.7113 11.6745 12.7072 11.6411 12.6992 11.609C12.6856 11.5548 12.7071 11.6518 12.7047 11.6493C12.697 11.6418 12.7003 11.5948 12.6997 11.5835C12.696 11.5113 12.7042 11.4412 12.7055 11.3695C12.7065 11.3139 12.7009 11.4128 12.6997 11.4099C12.7 11.3933 12.703 11.3768 12.7085 11.361C12.7169 11.3232 12.7246 11.2854 12.7349 11.2479C12.7466 11.2051 12.76 11.1628 12.7753 11.121C12.781 11.1053 12.7879 11.0899 12.7932 11.0741C12.8127 11.0163 12.7548 11.1439 12.7867 11.0918C12.8306 11.0201 12.8633 10.9425 12.9099 10.8717C12.921 10.855 12.9881 10.7615 12.9525 10.8087C12.917 10.8557 12.989 10.7666 13.0026 10.7515C13.0592 10.6886 13.1258 10.637 13.1844 10.5768C13.2191 10.5412 13.1602 10.5944 13.1567 10.5969C13.1748 10.5839 13.1926 10.5705 13.211 10.5579C13.243 10.5359 13.2758 10.515 13.3095 10.4954C13.3473 10.4733 13.3901 10.4568 13.4268 10.4334C13.4702 10.4058 13.3937 10.4456 13.3923 10.4464C13.4121 10.4366 13.4328 10.4287 13.4541 10.4229C13.4898 10.4103 13.6453 10.3434 13.6779 10.3643C13.6764 10.3634 13.5599 10.3737 13.6541 10.3676C13.6763 10.3662 13.6985 10.364 13.7208 10.3631C13.7659 10.3612 13.8108 10.3624 13.8559 10.3647C13.978 10.3639 14.0949 10.3152 14.1813 10.2291C14.2677 10.1429 14.3165 10.0264 14.3173 9.90458C14.3147 9.78336 14.2653 9.66783 14.1793 9.5821C14.0933 9.49637 13.9774 9.44705 13.8559 9.44445L13.8559 9.44444Z" fill="#E6E6E6"/>
<path d="M20.3165 9.44444C19.9157 9.44197 19.5231 9.55716 19.1876 9.77566C18.8521 9.99415 18.5885 10.3063 18.4296 10.6731C18.252 11.0322 18.1971 11.4394 18.2735 11.8325C18.3498 12.2255 18.5532 12.5829 18.8525 12.8498C19.1339 13.0885 19.4714 13.2521 19.8334 13.3255C20.1954 13.3988 20.5702 13.3794 20.9226 13.2691C21.2831 13.1436 21.5957 12.9097 21.8174 12.5998C22.039 12.2898 22.1589 11.9189 22.1604 11.5382C22.1765 11.1159 22.0618 10.6988 21.8318 10.3437C21.6017 9.9887 21.2677 9.7129 20.8749 9.55385C20.7569 9.52189 20.631 9.53773 20.5247 9.59793C20.4183 9.65813 20.3402 9.7578 20.3072 9.87522C20.2781 9.99277 20.2953 10.117 20.3553 10.2223C20.4152 10.3275 20.5134 10.4059 20.6295 10.4412C20.71 10.4722 20.5561 10.4018 20.6312 10.4426C20.662 10.4594 20.6935 10.4745 20.7238 10.4924C20.7496 10.5077 20.7743 10.5243 20.7993 10.5406C20.8855 10.5967 20.7573 10.4995 20.8124 10.5499C20.8601 10.5936 20.9074 10.6362 20.9508 10.6845C20.9672 10.7027 21.0315 10.7534 20.9816 10.7179C20.9433 10.6908 20.9668 10.6972 20.9815 10.719C20.9927 10.7355 21.0045 10.7516 21.0156 10.7682C21.0516 10.8225 21.0843 10.8789 21.1135 10.937C21.1203 10.9505 21.1265 10.9643 21.1334 10.9776C21.1463 11.0027 21.1651 11.0093 21.1347 10.9779C21.1057 10.9478 21.1241 10.9499 21.1345 10.9788C21.1414 10.9978 21.1488 11.0166 21.1554 11.0356C21.1771 11.0977 21.1953 11.1609 21.2099 11.225C21.2166 11.2546 21.2221 11.2844 21.2279 11.3142C21.2485 11.4199 21.2249 11.2485 21.2299 11.327C21.234 11.3925 21.2389 11.4574 21.2377 11.5231C21.2372 11.5533 21.2359 11.5833 21.2338 11.6134C21.2327 11.6283 21.231 11.6433 21.23 11.6583C21.2253 11.7305 21.2251 11.6319 21.2352 11.6251C21.2142 11.6864 21.2002 11.7499 21.1935 11.8144C21.1853 11.843 21.1755 11.871 21.1663 11.8993C21.1342 11.998 21.1964 11.8455 21.1622 11.9129C21.134 11.9709 21.1025 12.0272 21.0679 12.0816C21.0529 12.1043 20.9962 12.1558 21.0425 12.12C21.0928 12.0811 21.0162 12.148 20.9998 12.1652C20.9788 12.1873 20.957 12.2087 20.9344 12.2292C20.9199 12.2433 20.9046 12.2566 20.8886 12.2689C20.8856 12.2674 20.9657 12.2156 20.9225 12.243C20.8677 12.2779 20.8158 12.3152 20.758 12.3456C20.7513 12.3491 20.6774 12.3832 20.6777 12.3844C20.6745 12.372 20.7727 12.35 20.7053 12.3717C20.6911 12.3762 20.6773 12.3817 20.6632 12.3865C20.6018 12.4071 20.5392 12.4237 20.4757 12.4363C20.4612 12.4392 20.4458 12.4406 20.4315 12.4443C20.3838 12.4566 20.4771 12.4371 20.4799 12.4387C20.4446 12.4372 20.4093 12.4403 20.3749 12.448C20.3094 12.4517 20.2437 12.4517 20.1783 12.448C20.1631 12.4471 20.148 12.4456 20.1329 12.4447C20.0977 12.4427 20.0719 12.4174 20.1187 12.4448C20.1548 12.466 20.1518 12.4506 20.1198 12.4447C20.1048 12.4419 20.0898 12.4396 20.0748 12.4368C20.01 12.4247 19.946 12.409 19.8829 12.3899C19.8489 12.3796 19.8157 12.3676 19.7822 12.3559C19.7676 12.3517 19.7534 12.3463 19.7397 12.3396C19.7395 12.3358 19.826 12.3809 19.7804 12.3563C19.7227 12.3253 19.6631 12.2994 19.6068 12.2655C19.5768 12.2474 19.5479 12.2278 19.5187 12.2085C19.5059 12.2007 19.4937 12.192 19.4822 12.1824C19.4832 12.1785 19.5538 12.2437 19.5167 12.2085C19.4698 12.164 19.4197 12.1241 19.3754 12.0767C19.3652 12.0659 19.3556 12.0545 19.3455 12.0436L19.3357 12.0325C19.3107 12.002 19.3102 12.0021 19.3343 12.0329C19.3588 12.0401 19.3576 12.0669 19.3344 12.0321C19.3262 12.0197 19.3174 12.0077 19.3091 11.9953C19.2716 11.9421 19.2397 11.8852 19.2137 11.8255C19.216 11.8237 19.2537 11.9362 19.2249 11.8513C19.2194 11.8353 19.2133 11.8195 19.2079 11.8034C19.1973 11.7716 19.188 11.7393 19.1799 11.7067C19.172 11.6745 19.1679 11.6411 19.1598 11.609C19.1463 11.5548 19.1678 11.6518 19.1653 11.6493C19.1576 11.6418 19.1609 11.5948 19.1603 11.5835C19.1566 11.5113 19.1649 11.4412 19.1662 11.3695C19.1672 11.3139 19.1615 11.4128 19.1604 11.4099C19.1607 11.3933 19.1636 11.3768 19.1691 11.361C19.1775 11.3232 19.1853 11.2854 19.1955 11.2479C19.2072 11.2051 19.2207 11.1628 19.2359 11.121C19.2416 11.1053 19.2486 11.0899 19.2539 11.0741C19.2733 11.0163 19.2154 11.1439 19.2473 11.0918C19.2912 11.0201 19.3239 10.9425 19.3706 10.8717C19.3816 10.855 19.4488 10.7615 19.4131 10.8087C19.3776 10.8557 19.4496 10.7666 19.4632 10.7515C19.5198 10.6886 19.5864 10.637 19.645 10.5768C19.6797 10.5412 19.6208 10.5944 19.6173 10.5969C19.6355 10.5839 19.6532 10.5705 19.6716 10.5579C19.7037 10.5359 19.7365 10.515 19.7701 10.4954C19.808 10.4733 19.8508 10.4568 19.8875 10.4334C19.9308 10.4058 19.8543 10.4456 19.8529 10.4464C19.8727 10.4366 19.8934 10.4287 19.9147 10.4229C19.9505 10.4103 20.1059 10.3434 20.1385 10.3643C20.137 10.3634 20.0205 10.3737 20.1147 10.3676C20.137 10.3662 20.1591 10.364 20.1814 10.3631C20.2265 10.3612 20.2715 10.3624 20.3165 10.3647C20.4386 10.3639 20.5556 10.3152 20.6419 10.2291C20.7283 10.1429 20.7772 10.0264 20.778 9.90458C20.7754 9.78336 20.7259 9.66783 20.6399 9.5821C20.5539 9.49637 20.4381 9.44705 20.3165 9.44445L20.3165 9.44444Z" fill="#E6E6E6"/>
<path d="M26.7771 9.44444C26.3764 9.44197 25.9838 9.55716 25.6482 9.77566C25.3127 9.99415 25.0491 10.3063 24.8903 10.6731C24.7126 11.0322 24.6577 11.4394 24.7341 11.8325C24.8105 12.2255 25.0139 12.5829 25.3132 12.8498C25.5945 13.0885 25.932 13.2521 26.294 13.3255C26.656 13.3988 27.0308 13.3794 27.3833 13.2691C27.7437 13.1436 28.0563 12.9097 28.278 12.5998C28.4997 12.2898 28.6195 11.9189 28.6211 11.5382C28.6372 11.1159 28.5224 10.6988 28.2924 10.3437C28.0624 9.9887 27.7283 9.7129 27.3355 9.55385C27.2175 9.52189 27.0916 9.53773 26.9853 9.59793C26.879 9.65813 26.8008 9.7578 26.7679 9.87522C26.7388 9.99277 26.756 10.117 26.8159 10.2223C26.8759 10.3275 26.974 10.4059 27.0902 10.4412C27.1706 10.4722 27.0167 10.4018 27.0918 10.4426C27.1227 10.4594 27.1541 10.4745 27.1845 10.4924C27.2102 10.5077 27.2349 10.5243 27.26 10.5406C27.3461 10.5967 27.2179 10.4995 27.273 10.5499C27.3207 10.5936 27.3681 10.6362 27.4114 10.6845C27.4279 10.7027 27.4922 10.7534 27.4422 10.7179C27.404 10.6908 27.4274 10.6972 27.4422 10.719C27.4534 10.7355 27.4652 10.7516 27.4762 10.7682C27.5122 10.8225 27.5449 10.8789 27.5742 10.937C27.5809 10.9505 27.5871 10.9643 27.594 10.9776C27.607 11.0027 27.6257 11.0093 27.5953 10.9779C27.5663 10.9478 27.5848 10.9499 27.5952 10.9788C27.602 10.9978 27.6094 11.0166 27.6161 11.0356C27.6377 11.0977 27.6559 11.1609 27.6705 11.225C27.6773 11.2546 27.6827 11.2844 27.6885 11.3142C27.7091 11.4199 27.6855 11.2485 27.6905 11.327C27.6946 11.3925 27.6995 11.4574 27.6983 11.5231C27.6978 11.5533 27.6965 11.5833 27.6944 11.6134C27.6933 11.6283 27.6917 11.6433 27.6907 11.6583C27.6859 11.7305 27.6857 11.6319 27.6959 11.6251C27.6748 11.6864 27.6608 11.7499 27.6542 11.8144C27.6459 11.843 27.6361 11.871 27.6269 11.8993C27.5948 11.998 27.657 11.8455 27.6228 11.9129C27.5947 11.9709 27.5632 12.0272 27.5285 12.0816C27.5135 12.1043 27.4568 12.1558 27.5032 12.12C27.5535 12.0811 27.4768 12.148 27.4604 12.1652C27.4394 12.1873 27.4176 12.2087 27.395 12.2292C27.3805 12.2433 27.3652 12.2566 27.3492 12.2689C27.3463 12.2674 27.4263 12.2156 27.3832 12.243C27.3283 12.2779 27.2764 12.3152 27.2186 12.3456C27.2119 12.3491 27.138 12.3832 27.1383 12.3844C27.1352 12.372 27.2333 12.35 27.1659 12.3717C27.1518 12.3762 27.1379 12.3817 27.1238 12.3865C27.0625 12.4071 26.9998 12.4237 26.9363 12.4363C26.9218 12.4392 26.9064 12.4406 26.8921 12.4443C26.8444 12.4566 26.9377 12.4371 26.9405 12.4387C26.9052 12.4372 26.8699 12.4403 26.8355 12.448C26.77 12.4517 26.7044 12.4517 26.6389 12.448C26.6237 12.4471 26.6086 12.4456 26.5935 12.4447C26.5583 12.4427 26.5325 12.4174 26.5793 12.4448C26.6154 12.466 26.6124 12.4506 26.5804 12.4447C26.5655 12.4419 26.5504 12.4396 26.5355 12.4368C26.4707 12.4247 26.4066 12.409 26.3435 12.3899C26.3096 12.3796 26.2763 12.3676 26.2428 12.3559C26.2282 12.3517 26.214 12.3463 26.2004 12.3396C26.2002 12.3358 26.2867 12.3809 26.241 12.3563C26.1834 12.3253 26.1237 12.2994 26.0675 12.2655C26.0374 12.2474 26.0086 12.2278 25.9794 12.2085C25.9665 12.2007 25.9543 12.192 25.9428 12.1824C25.9438 12.1785 26.0144 12.2437 25.9773 12.2085C25.9305 12.164 25.8804 12.1241 25.836 12.0767C25.8258 12.0659 25.8162 12.0545 25.8061 12.0436L25.7963 12.0325C25.7713 12.002 25.7708 12.0021 25.7949 12.0329C25.8194 12.0401 25.8183 12.0669 25.7951 12.0321C25.7868 12.0197 25.778 12.0077 25.7698 11.9953C25.7323 11.9421 25.7003 11.8852 25.6744 11.8255C25.6766 11.8237 25.7143 11.9362 25.6855 11.8513C25.68 11.8353 25.6739 11.8195 25.6686 11.8034C25.658 11.7716 25.6486 11.7393 25.6406 11.7067C25.6326 11.6745 25.6285 11.6411 25.6205 11.609C25.6069 11.5548 25.6284 11.6518 25.6259 11.6493C25.6182 11.6418 25.6215 11.5948 25.6209 11.5835C25.6172 11.5113 25.6255 11.4412 25.6268 11.3695C25.6278 11.3139 25.6222 11.4128 25.621 11.4099C25.6213 11.3933 25.6243 11.3768 25.6298 11.361C25.6381 11.3232 25.6459 11.2854 25.6561 11.2479C25.6678 11.2051 25.6813 11.1628 25.6966 11.121C25.7023 11.1053 25.7092 11.0899 25.7145 11.0741C25.7339 11.0163 25.6761 11.1439 25.708 11.0918C25.7519 11.0201 25.7846 10.9425 25.8312 10.8717C25.8422 10.855 25.9094 10.7615 25.8738 10.8087C25.8383 10.8557 25.9102 10.7666 25.9239 10.7515C25.9805 10.6886 26.047 10.637 26.1056 10.5768C26.1403 10.5412 26.0814 10.5944 26.078 10.5969C26.0961 10.5839 26.1139 10.5705 26.1323 10.5579C26.1643 10.5359 26.1971 10.515 26.2307 10.4954C26.2686 10.4733 26.3114 10.4568 26.3481 10.4334C26.3914 10.4058 26.3149 10.4456 26.3136 10.4464C26.3334 10.4366 26.3541 10.4287 26.3754 10.4229C26.4111 10.4103 26.5665 10.3434 26.5991 10.3643C26.5977 10.3634 26.4811 10.3737 26.5753 10.3676C26.5976 10.3662 26.6198 10.364 26.6421 10.3631C26.6871 10.3612 26.7321 10.3624 26.7771 10.3647C26.8993 10.3639 27.0162 10.3152 27.1026 10.2291C27.1889 10.1429 27.2378 10.0264 27.2386 9.90458C27.236 9.78336 27.1865 9.66783 27.1006 9.5821C27.0146 9.49637 26.8987 9.44705 26.7771 9.44445L26.7771 9.44444Z" fill="#E6E6E6"/>
<path d="M120.11 111.351H6.92393C5.49269 111.349 4.12051 110.781 3.10845 109.772C2.09639 108.763 1.52711 107.395 1.5255 105.968V5.38267C1.5271 3.95559 2.09638 2.58741 3.10843 1.57831C4.12049 0.569214 5.49267 0.00160027 6.92393 0H120.11C121.541 0.00160027 122.913 0.569214 123.925 1.57831C124.937 2.58741 125.506 3.95559 125.508 5.38267V105.968C125.506 107.395 124.937 108.763 123.925 109.772C122.913 110.781 121.541 111.349 120.11 111.351ZM6.92393 0.613502C5.65581 0.614941 4.44004 1.11787 3.54334 2.01195C2.64664 2.90603 2.14224 4.11825 2.1408 5.38267V105.968C2.14227 107.232 2.64669 108.445 3.54338 109.339C4.44008 110.233 5.65583 110.736 6.92393 110.737H120.11C121.378 110.736 122.594 110.233 123.49 109.339C124.387 108.445 124.891 107.232 124.893 105.968V5.38267C124.891 4.11825 124.387 2.90603 123.49 2.01195C122.594 1.11787 121.378 0.614941 120.11 0.613502H6.92393Z" fill="#E6E6E6"/>
<path d="M6.73641 68.4379L46.5398 68.3172L86.1401 68.1971L108.479 68.1294C108.598 68.1252 108.712 68.0749 108.795 67.9891C108.878 67.9033 108.925 67.7886 108.925 67.6692C108.925 67.5499 108.878 67.4352 108.795 67.3494C108.712 67.2635 108.598 67.2132 108.479 67.2091L68.6754 67.3298L29.0751 67.4499L6.73641 67.5177C6.61679 67.5218 6.50345 67.5721 6.42029 67.6579C6.33713 67.7438 6.29065 67.8585 6.29065 67.9778C6.29065 68.0972 6.33713 68.2118 6.42029 68.2977C6.50345 68.3835 6.61679 68.4338 6.73641 68.4379Z" fill="#E6E6E6"/>
<path d="M26.8166 67.6919L27.0627 53.2019C27.0728 52.6095 26.1498 52.6094 26.1398 53.2019L25.8936 67.6919C25.8836 68.2843 26.8065 68.2844 26.8166 67.6919Z" fill="#E6E6E6"/>
<path d="M45.8402 67.8487L46.4399 49.6355L46.6113 44.4318C46.6308 43.8394 45.7078 43.8401 45.6884 44.4318L45.0886 62.645L44.9172 67.8487C44.8977 68.4411 45.8207 68.4404 45.8402 67.8487Z" fill="#E6E6E6"/>
<path d="M64.8124 35.7983C64.4506 42.2492 63.7812 61.277 63.4194 67.7279C63.3862 68.3197 64.3093 68.3178 64.3424 67.7279C64.7041 61.277 65.3736 42.2492 65.7353 35.7983C65.7685 35.2065 64.8455 35.2084 64.8124 35.7983Z" fill="#E6E6E6"/>
<path d="M83.6933 61.2548L83.5802 67.4552C83.5694 68.0476 84.4923 68.0477 84.5031 67.4552C84.6367 60.1321 84.9794 60.3708 85.0171 58.304C85.0279 57.7116 84.105 57.7115 84.0942 58.304C84.0942 58.304 83.8269 53.9317 83.6933 61.2548Z" fill="#E6E6E6"/>
<path d="M102.187 44.9662L102.291 62.3616L102.321 67.3427C102.325 67.462 102.376 67.575 102.462 67.6579C102.548 67.7408 102.663 67.7872 102.782 67.7872C102.902 67.7872 103.017 67.7408 103.103 67.6579C103.189 67.575 103.24 67.462 103.244 67.3427L103.14 49.9473L103.11 44.9662C103.106 44.8469 103.055 44.7339 102.969 44.651C102.883 44.5681 102.768 44.5217 102.648 44.5217C102.528 44.5217 102.413 44.5681 102.327 44.651C102.241 44.7339 102.191 44.8469 102.187 44.9662Z" fill="#E6E6E6"/>
<path d="M6.81062 67.9202C6.04666 65.827 7.76879 63.8137 9.53833 62.909C11.6583 61.8252 14.0971 61.5795 16.2396 60.5347C19.4337 58.977 21.7602 56.1814 23.8303 53.3831C25.9611 50.503 27.9106 47.4118 30.6181 45.0188C32.0448 43.7297 33.7298 42.7574 35.5616 42.1663C37.8697 41.4481 40.3175 41.3988 42.7024 41.6882C47.6305 42.2863 52.1989 44.3158 56.9539 45.6057C61.437 46.8218 66.3765 47.5057 70.7768 45.6146C73.0125 44.6537 74.8407 43.0423 76.8043 41.6478C78.7047 40.284 80.8295 39.262 83.0829 38.6279C87.5001 37.4032 92.324 37.7302 96.4364 39.8006C100.217 41.6793 103.21 44.8291 104.887 48.6941C106.837 53.3378 106.583 58.5272 105.946 63.415C105.782 64.6785 105.586 65.9377 105.388 67.1962C105.297 67.7756 106.186 68.0252 106.278 67.4409C107.071 62.4007 107.862 57.2009 106.875 52.1291C106.022 47.7004 103.579 43.7335 100.005 40.9705C96.415 38.2001 91.9526 36.7959 87.4183 37.01C85.0422 37.1199 82.703 37.6386 80.5041 38.5432C78.2216 39.4846 76.2887 40.8799 74.3254 42.3481C72.3068 43.8576 70.226 45.1062 67.7199 45.5985C65.289 46.076 62.7601 45.897 60.3399 45.4462C55.346 44.5158 50.6912 42.3832 45.7397 41.2905C41.1522 40.2781 36.2018 40.177 32.0938 42.761C28.9338 44.7488 26.701 47.8347 24.558 50.8145C22.4339 53.7681 20.2829 56.9266 17.1769 58.9442C15.2822 60.175 13.1523 60.6292 11.0327 61.3214C8.90771 62.0153 6.86766 63.186 6.0012 65.3568C5.62776 66.2509 5.59907 67.251 5.92064 68.1649C6.12215 68.717 7.01441 68.4786 6.81062 67.9202V67.9202Z" fill="#E6E6E6"/>
<path d="M26.5114 51.1982L26.5092 51.1993L26.5135 51.1982H26.5114Z" fill="#E6E6E6"/>
<path d="M28.1107 50.3518C27.8974 49.9751 27.5571 49.6861 27.1502 49.5359C26.7434 49.3858 26.2963 49.3843 25.8885 49.5317C25.6858 49.6055 25.4999 49.7191 25.342 49.8657C25.184 50.0124 25.0572 50.1891 24.9689 50.3855C24.9512 50.4272 24.9409 50.4711 24.9265 50.5138C24.9065 50.5461 24.8825 50.5752 24.8645 50.6089C24.6733 50.989 24.6209 51.4237 24.7164 51.8381C24.812 52.2525 25.0495 52.6207 25.388 52.8793C25.7266 53.1379 26.145 53.2707 26.5711 53.2549C26.9973 53.239 27.4046 53.0754 27.7229 52.7924C28.0573 52.4909 28.2782 52.0843 28.3488 51.6403C28.4193 51.1963 28.3353 50.7416 28.1107 50.3518ZM26.9548 51.1333C26.9586 51.1565 26.9572 51.1778 26.9548 51.1333V51.1333ZM26.8373 50.8669C26.8327 50.8617 26.8333 50.8623 26.8373 50.8669V50.8669ZM26.3194 51.0745C26.3125 51.0639 26.3118 51.0621 26.3194 51.0745V51.0745ZM26.4421 51.1783C26.4714 51.1882 26.4598 51.1861 26.4421 51.1783V51.1783ZM26.497 51.2043L26.5091 51.1988C26.5061 51.1991 26.5031 51.1985 26.5005 51.1971L26.5009 51.197L26.5104 51.1982L26.5122 51.1974L26.5067 51.1961C26.5114 51.196 26.512 51.1966 26.5123 51.1973C26.5672 51.1723 26.53 51.1843 26.4982 51.1942L26.4961 51.1937C26.4762 51.1836 26.4548 51.1768 26.4328 51.1734C26.4308 51.1723 26.4283 51.1715 26.4266 51.1703C26.409 51.1577 26.3197 51.0882 26.4025 51.1611C26.3845 51.1452 26.3667 51.1296 26.3497 51.1125C26.3397 51.1022 26.3307 51.0911 26.3226 51.0793C26.3118 51.0607 26.3012 51.042 26.291 51.023L26.2895 51.0128C26.2881 51.0044 26.2871 51.0008 26.286 50.9957C26.2865 50.9905 26.2874 50.9848 26.2882 50.9793C26.2944 50.9628 26.2983 50.9455 26.2999 50.9279L26.3035 50.9234C26.3167 50.905 26.3283 50.8835 26.341 50.8643C26.2741 50.9656 26.3671 50.8531 26.3741 50.8389C26.3753 50.8364 26.3732 50.8378 26.3737 50.8361C26.3764 50.8346 26.3756 50.8356 26.3789 50.8337C26.3996 50.8215 26.4192 50.808 26.4403 50.7963C26.4653 50.7825 26.5641 50.7545 26.4617 50.7837C26.485 50.7771 26.5073 50.7687 26.5308 50.7626C26.535 50.7615 26.5695 50.7567 26.5881 50.7533C26.6044 50.7529 26.6202 50.7524 26.6219 50.7525C26.6296 50.7526 26.6372 50.7535 26.6449 50.7538C26.6279 50.7561 26.7032 50.7723 26.7256 50.7757C26.7288 50.7783 26.7304 50.7799 26.7348 50.7831C26.7538 50.7969 26.7768 50.8091 26.7967 50.822C26.7075 50.7645 26.7979 50.8266 26.8149 50.8436C26.8251 50.8537 26.8345 50.8646 26.8441 50.8753C26.8529 50.8854 26.8609 50.8963 26.8679 50.9078C26.8825 50.9345 26.8981 50.9616 26.9134 50.9879L26.9177 50.9946C26.9176 50.9955 26.9176 50.9964 26.9176 50.9972C26.9256 51.0399 26.9374 51.0817 26.9529 51.1223C26.9537 51.1257 26.9543 51.1292 26.9547 51.1327C26.9561 51.1561 26.9581 51.1794 26.9581 51.2029L26.9579 51.2076C26.8868 51.1707 26.808 51.1511 26.7278 51.1505C26.6477 51.15 26.5685 51.1684 26.497 51.2043H26.497Z" fill="#E6E6E6"/>
<path d="M26.5135 51.1977C26.5163 51.1985 26.5136 51.1984 26.513 51.1986L26.5135 51.1977Z" fill="#E6E6E6"/>
<path d="M26.5129 51.1976L26.514 51.1979L26.5129 51.1976Z" fill="#E6E6E6"/>
<path d="M26.5138 51.1982L26.5116 51.1985C26.5144 51.1988 26.5134 51.1983 26.5138 51.1982Z" fill="#E6E6E6"/>
<path d="M26.5123 51.1973L26.5143 51.1983L26.5123 51.1973Z" fill="#E6E6E6"/>
<path d="M46.2009 42.6093L46.1988 42.6103L46.203 42.6093H46.2009Z" fill="#E6E6E6"/>
<path d="M47.8002 41.7627C47.5869 41.3861 47.2466 41.097 46.8398 40.9469C46.4329 40.7968 45.9859 40.7953 45.578 40.9427C45.3753 41.0165 45.1895 41.13 45.0315 41.2767C44.8736 41.4233 44.7467 41.6 44.6584 41.7964C44.6408 41.8382 44.6304 41.882 44.616 41.9248C44.596 41.957 44.572 41.9861 44.5541 42.0199C44.3628 42.3999 44.3104 42.8346 44.406 43.249C44.5015 43.6634 44.739 44.0317 45.0776 44.2903C45.4161 44.5489 45.8345 44.6817 46.2607 44.6658C46.6869 44.6499 47.0942 44.4864 47.4124 44.2033C47.7469 43.9018 47.9677 43.4953 48.0383 43.0513C48.1089 42.6073 48.0249 42.1525 47.8002 41.7627ZM46.6443 42.5442C46.6481 42.5674 46.6467 42.5888 46.6443 42.5442V42.5442ZM46.5268 42.2778C46.5223 42.2726 46.5229 42.2732 46.5268 42.2778V42.2778ZM46.0089 42.4855C46.002 42.4748 46.0013 42.4731 46.0089 42.4855V42.4855ZM46.1317 42.5892C46.1609 42.5992 46.1494 42.5971 46.1317 42.5892V42.5892ZM46.1865 42.6153L46.1986 42.6097C46.1957 42.61 46.1927 42.6094 46.19 42.608L46.1904 42.608L46.1999 42.6091L46.2017 42.6083L46.1962 42.6071C46.201 42.6069 46.2015 42.6076 46.2018 42.6083C46.2567 42.5832 46.2195 42.5953 46.1877 42.6051L46.1856 42.6046C46.1657 42.5946 46.1444 42.5877 46.1223 42.5844C46.1203 42.5832 46.1179 42.5824 46.1162 42.5812C46.0985 42.5687 46.0092 42.4991 46.092 42.572C46.074 42.5562 46.0562 42.5406 46.0392 42.5234C46.0292 42.5132 46.0202 42.5021 46.0122 42.4902C46.0013 42.4717 45.9907 42.4529 45.9805 42.434L45.979 42.4238C45.9777 42.4153 45.9766 42.4118 45.9755 42.4067C45.976 42.4014 45.9769 42.3958 45.9777 42.3903C45.9839 42.3737 45.9878 42.3564 45.9894 42.3389L45.993 42.3344C46.0063 42.3159 46.0179 42.2944 46.0305 42.2752C45.9636 42.3765 46.0567 42.2641 46.0636 42.2498C46.0648 42.2474 46.0627 42.2487 46.0632 42.247C46.0659 42.2455 46.0651 42.2466 46.0684 42.2446C46.0891 42.2325 46.1088 42.2189 46.1298 42.2073C46.1549 42.1934 46.2536 42.1655 46.1512 42.1947C46.1745 42.188 46.1968 42.1797 46.2203 42.1735C46.2246 42.1724 46.2591 42.1676 46.2776 42.1643C46.2939 42.1639 46.3098 42.1634 46.3114 42.1634C46.3191 42.1635 46.3267 42.1644 46.3344 42.1648C46.3174 42.167 46.3927 42.1833 46.4151 42.1867C46.4183 42.1892 46.42 42.1909 46.4244 42.1941C46.4433 42.2078 46.4663 42.2201 46.4862 42.2329C46.397 42.1754 46.4874 42.2375 46.5045 42.2545C46.5146 42.2647 46.524 42.2755 46.5336 42.2862C46.5424 42.2964 46.5504 42.3073 46.5574 42.3187C46.572 42.3455 46.5876 42.3725 46.603 42.3988L46.6072 42.4056C46.6072 42.4064 46.6071 42.4073 46.6071 42.4082C46.6151 42.4508 46.627 42.4927 46.6424 42.5333C46.6432 42.5367 46.6438 42.5402 46.6442 42.5437C46.6456 42.567 46.6476 42.5903 46.6476 42.6138L46.6474 42.6186C46.5764 42.5816 46.4975 42.562 46.4174 42.5615C46.3372 42.5609 46.2581 42.5794 46.1865 42.6153Z" fill="#E6E6E6"/>
<path d="M46.2034 42.6091L46.2012 42.6095C46.204 42.6098 46.203 42.6093 46.2034 42.6091Z" fill="#E6E6E6"/>
<path d="M46.2018 42.6083L46.2038 42.6093L46.2018 42.6083Z" fill="#E6E6E6"/>
<path d="M46.2031 42.6086C46.2058 42.6095 46.2032 42.6093 46.2026 42.6096L46.2031 42.6086Z" fill="#E6E6E6"/>
<path d="M46.2025 42.6086L46.2036 42.6089L46.2025 42.6086Z" fill="#E6E6E6"/>
<path d="M65.2761 46.9028L65.2781 46.9038L65.2761 46.9028Z" fill="#E6E6E6"/>
<path d="M66.8745 33.1737C66.6612 32.7971 66.3209 32.508 65.914 32.3579C65.5072 32.2078 65.0601 32.2063 64.6523 32.3537C64.4495 32.4275 64.2637 32.5411 64.1058 32.6877C63.9478 32.8343 63.821 33.0111 63.7327 33.2074C63.715 33.2492 63.7047 33.293 63.6903 33.3358C63.6703 33.368 63.6462 33.3972 63.6283 33.4309C63.437 33.8109 63.3847 34.2456 63.4802 34.66C63.5758 35.0745 63.8133 35.4427 64.1518 35.7013C64.4904 35.9599 64.9088 36.0927 65.3349 36.0768C65.7611 36.0609 66.1684 35.8974 66.4866 35.6143C66.8211 35.3128 67.042 34.9063 67.1126 34.4623C67.1831 34.0183 67.0991 33.5635 66.8745 33.1737ZM65.7186 33.9552C65.7224 33.9785 65.721 33.9998 65.7186 33.9552V33.9552ZM65.6011 33.6888C65.5965 33.6837 65.5971 33.6842 65.6011 33.6888V33.6888ZM65.0832 33.8965C65.0763 33.8858 65.0756 33.8841 65.0832 33.8965V33.8965ZM65.2059 34.0002C65.2352 34.0102 65.2236 34.0081 65.2059 34.0002V34.0002ZM65.2607 34.0263L65.2729 34.0207C65.2699 34.021 65.2669 34.0204 65.2643 34.019L65.2646 34.019L65.2742 34.0202L65.2759 34.0194L65.2704 34.0181C65.2752 34.0179 65.2757 34.0186 65.2761 34.0193C65.331 33.9942 65.2938 34.0063 65.262 34.0161L65.2598 34.0156C65.24 34.0056 65.2186 33.9987 65.1966 33.9954C65.1945 33.9943 65.1921 33.9934 65.1904 33.9922C65.1727 33.9797 65.0834 33.9101 65.1663 33.983C65.1483 33.9672 65.1304 33.9516 65.1135 33.9344C65.1035 33.9242 65.0944 33.9131 65.0864 33.9013C65.0755 33.8827 65.065 33.8639 65.0548 33.845L65.0533 33.8348C65.0519 33.8263 65.0509 33.8228 65.0498 33.8177C65.0503 33.8124 65.0511 33.8068 65.052 33.8013C65.0581 33.7848 65.0621 33.7675 65.0637 33.7499L65.0672 33.7454C65.0805 33.7269 65.0921 33.7054 65.1048 33.6862C65.0379 33.7875 65.1309 33.6751 65.1379 33.6608C65.139 33.6584 65.137 33.6597 65.1375 33.658C65.1402 33.6565 65.1394 33.6576 65.1426 33.6557C65.1634 33.6435 65.183 33.6299 65.2041 33.6183C65.2291 33.6044 65.3279 33.5765 65.2255 33.6057C65.2487 33.599 65.2711 33.5907 65.2946 33.5845C65.2988 33.5834 65.3333 33.5786 65.3519 33.5753C65.3682 33.5749 65.384 33.5744 65.3857 33.5744C65.3933 33.5745 65.401 33.5754 65.4087 33.5758C65.3917 33.5781 65.467 33.5943 65.4893 33.5977C65.4926 33.6002 65.4942 33.6019 65.4986 33.6051C65.5175 33.6188 65.5405 33.6311 65.5605 33.644C65.4712 33.5864 65.5617 33.6485 65.5787 33.6655C65.5889 33.6757 65.5983 33.6865 65.6079 33.6972C65.6167 33.7074 65.6246 33.7183 65.6317 33.7297C65.6463 33.7565 65.6619 33.7835 65.6772 33.8098L65.6815 33.8166C65.6814 33.8174 65.6814 33.8183 65.6814 33.8192C65.6894 33.8619 65.7012 33.9037 65.7167 33.9443C65.7175 33.9477 65.718 33.9512 65.7184 33.9547C65.7199 33.978 65.7218 34.0013 65.7219 34.0248L65.7217 34.0296C65.6506 33.9926 65.5717 33.9731 65.4916 33.9725C65.4115 33.9719 65.3323 33.9904 65.2607 34.0263Z" fill="#E6E6E6"/>
<path d="M65.2751 46.9037L65.273 46.9048L65.2772 46.9037H65.2751Z" fill="#E6E6E6"/>
<path d="M65.2767 46.9031L65.2778 46.9034L65.2767 46.9031Z" fill="#E6E6E6"/>
<path d="M65.2776 46.9036L65.2755 46.904C65.2782 46.9043 65.2772 46.9038 65.2776 46.9036Z" fill="#E6E6E6"/>
<path d="M65.2773 46.9032C65.2801 46.904 65.2774 46.9039 65.2768 46.9041L65.2773 46.9032Z" fill="#E6E6E6"/>
<path d="M86.2564 56.7936C86.0431 56.4169 85.7028 56.1278 85.2959 55.9777C84.8891 55.8276 84.442 55.8261 84.0342 55.9735C83.8314 56.0473 83.6456 56.1609 83.4877 56.3075C83.3297 56.4541 83.2028 56.6309 83.1146 56.8272C83.0969 56.869 83.0866 56.9129 83.0722 56.9556C83.0522 56.9879 83.0281 57.017 83.0102 57.0507C82.8189 57.4308 82.7666 57.8654 82.8621 58.2799C82.9577 58.6943 83.1952 59.0625 83.5337 59.3211C83.8723 59.5797 84.2907 59.7125 84.7168 59.6966C85.143 59.6808 85.5503 59.5172 85.8685 59.2341C86.203 58.9327 86.4239 58.5261 86.4945 58.0821C86.565 57.6381 86.481 57.1834 86.2564 56.7936ZM85.1005 57.575C85.1042 57.5983 85.1029 57.6196 85.1005 57.575V57.575ZM84.983 57.3087C84.9784 57.3035 84.979 57.304 84.983 57.3087V57.3087ZM84.4651 57.5163C84.4582 57.5057 84.4575 57.5039 84.4651 57.5163V57.5163ZM84.5878 57.6201C84.6171 57.63 84.6055 57.6279 84.5878 57.6201V57.6201ZM84.6426 57.6461L84.6548 57.6405C84.6518 57.6408 84.6488 57.6402 84.6462 57.6389L84.6465 57.6388L84.656 57.64L84.6578 57.6392L84.6523 57.6379C84.6571 57.6377 84.6576 57.6384 84.658 57.6391C84.7129 57.614 84.6757 57.6261 84.6439 57.6359L84.6417 57.6354C84.6219 57.6254 84.6005 57.6186 84.5785 57.6152C84.5764 57.6141 84.574 57.6132 84.5723 57.612C84.5546 57.5995 84.4653 57.5299 84.5482 57.6029C84.5302 57.587 84.5123 57.5714 84.4954 57.5542C84.4854 57.544 84.4763 57.5329 84.4683 57.5211C84.4574 57.5025 84.4469 57.4837 84.4367 57.4648L84.4352 57.4546C84.4338 57.4461 84.4328 57.4426 84.4317 57.4375C84.4322 57.4322 84.433 57.4266 84.4339 57.4211C84.44 57.4046 84.444 57.3873 84.4456 57.3697L84.4491 57.3652C84.4624 57.3467 84.474 57.3252 84.4867 57.3061C84.4198 57.4074 84.5128 57.2949 84.5198 57.2806C84.5209 57.2782 84.5189 57.2795 84.5194 57.2778C84.5221 57.2763 84.5213 57.2774 84.5245 57.2755C84.5453 57.2633 84.5649 57.2497 84.586 57.2381C84.611 57.2242 84.7098 57.1963 84.6074 57.2255C84.6306 57.2189 84.6529 57.2105 84.6765 57.2044C84.6807 57.2033 84.7152 57.1984 84.7338 57.1951C84.7501 57.1947 84.7659 57.1942 84.7676 57.1942C84.7752 57.1943 84.7829 57.1953 84.7906 57.1956C84.7736 57.1979 84.8489 57.2141 84.8712 57.2175C84.8745 57.22 84.8761 57.2217 84.8805 57.2249C84.8994 57.2387 84.9224 57.2509 84.9424 57.2638C84.8531 57.2063 84.9436 57.2683 84.9606 57.2853C84.9708 57.2955 84.9802 57.3063 84.9898 57.317C84.9986 57.3272 85.0065 57.3381 85.0136 57.3495C85.0282 57.3763 85.0437 57.4033 85.0591 57.4296L85.0634 57.4364C85.0633 57.4373 85.0633 57.4381 85.0633 57.439C85.0713 57.4817 85.0831 57.5235 85.0986 57.5641C85.0994 57.5675 85.0999 57.571 85.1003 57.5745C85.1018 57.5978 85.1037 57.6211 85.1038 57.6446L85.1036 57.6494C85.0325 57.6124 84.9536 57.5929 84.8735 57.5923C84.7934 57.5917 84.7142 57.6102 84.6426 57.6461Z" fill="#E6E6E6"/>
<path d="M84.657 37.3945L84.6549 37.3955L84.6591 37.3945H84.657Z" fill="#E6E6E6"/>
<path d="M84.6586 37.3938L84.6597 37.3941L84.6586 37.3938Z" fill="#E6E6E6"/>
<path d="M84.6595 37.3943L84.6573 37.3947C84.6601 37.395 84.6591 37.3945 84.6595 37.3943Z" fill="#E6E6E6"/>
<path d="M84.6592 37.3939C84.662 37.3948 84.6593 37.3946 84.6587 37.3949L84.6592 37.3939Z" fill="#E6E6E6"/>
<path d="M84.658 37.3936L84.6599 37.3946L84.658 37.3936Z" fill="#E6E6E6"/>
<path d="M102.81 43.5288L102.811 43.5291L102.81 43.5288Z" fill="#E6E6E6"/>
<path d="M104.408 42.683C104.194 42.3064 103.854 42.0173 103.447 41.8672C103.04 41.717 102.593 41.7155 102.185 41.863C101.983 41.9368 101.797 42.0503 101.639 42.197C101.481 42.3436 101.354 42.5203 101.266 42.7167C101.248 42.7584 101.238 42.8023 101.223 42.8451C101.203 42.8773 101.179 42.9064 101.162 42.9402C100.97 43.3202 100.918 43.7549 101.013 44.1693C101.109 44.5837 101.346 44.952 101.685 45.2106C102.024 45.4692 102.442 45.602 102.868 45.5861C103.294 45.5702 103.702 45.4067 104.02 45.1236C104.354 44.8221 104.575 44.4156 104.646 43.9716C104.716 43.5275 104.632 43.0728 104.408 42.683ZM103.252 43.4645C103.256 43.4877 103.254 43.5091 103.252 43.4645V43.4645ZM103.134 43.1981C103.13 43.1929 103.13 43.1935 103.134 43.1981V43.1981ZM102.616 43.4058C102.609 43.3951 102.609 43.3933 102.616 43.4058V43.4058ZM102.739 43.5095C102.768 43.5194 102.757 43.5174 102.739 43.5095V43.5095ZM102.794 43.5356L102.806 43.53C102.803 43.5303 102.8 43.5297 102.797 43.5283L102.798 43.5283L102.807 43.5294L102.809 43.5286L102.804 43.5274C102.808 43.5272 102.809 43.5278 102.809 43.5286C102.864 43.5035 102.827 43.5156 102.795 43.5254L102.793 43.5249C102.773 43.5149 102.752 43.508 102.73 43.5047C102.728 43.5035 102.725 43.5027 102.724 43.5015C102.706 43.4889 102.617 43.4194 102.699 43.4923C102.681 43.4764 102.664 43.4608 102.647 43.4437C102.637 43.4335 102.628 43.4224 102.62 43.4105C102.609 43.3919 102.598 43.3732 102.588 43.3543L102.586 43.3441C102.585 43.3356 102.584 43.3321 102.583 43.327C102.583 43.3217 102.584 43.3161 102.585 43.3106C102.591 43.294 102.595 43.2767 102.597 43.2591L102.6 43.2547C102.614 43.2362 102.625 43.2147 102.638 43.1955C102.571 43.2968 102.664 43.1843 102.671 43.1701C102.672 43.1677 102.67 43.169 102.671 43.1673C102.673 43.1658 102.673 43.1668 102.676 43.1649C102.697 43.1528 102.716 43.1392 102.737 43.1276C102.762 43.1137 102.861 43.0858 102.759 43.1149C102.782 43.1083 102.804 43.0999 102.828 43.0938C102.832 43.0927 102.866 43.0879 102.885 43.0846C102.901 43.0842 102.917 43.0837 102.919 43.0837C102.927 43.0838 102.934 43.0847 102.942 43.0851C102.925 43.0873 103 43.1036 103.023 43.107C103.026 43.1095 103.027 43.1111 103.032 43.1143C103.051 43.1281 103.074 43.1404 103.094 43.1532C103.004 43.0957 103.095 43.1578 103.112 43.1748C103.122 43.185 103.131 43.1958 103.141 43.2065C103.15 43.2167 103.158 43.2275 103.165 43.239C103.179 43.2657 103.195 43.2928 103.21 43.3191L103.215 43.3259C103.215 43.3267 103.215 43.3276 103.215 43.3285C103.223 43.3711 103.234 43.413 103.25 43.4535C103.251 43.457 103.251 43.4605 103.252 43.4639C103.253 43.4873 103.255 43.5106 103.255 43.5341L103.255 43.5388C103.184 43.5019 103.105 43.4823 103.025 43.4818C102.945 43.4812 102.866 43.4996 102.794 43.5356Z" fill="#E6E6E6"/>
<path d="M102.808 43.5295L102.806 43.5305L102.81 43.5295H102.808Z" fill="#E6E6E6"/>
<path d="M102.809 43.5286L102.811 43.5296L102.809 43.5286Z" fill="#E6E6E6"/>
<path d="M102.811 43.5289C102.813 43.5298 102.811 43.5296 102.81 43.5299L102.811 43.5289Z" fill="#E6E6E6"/>
<path d="M102.811 43.5294L102.809 43.5297C102.811 43.53 102.81 43.5295 102.811 43.5294Z" fill="#E6E6E6"/>
<path d="M97.8334 57.5873L83.5287 58.3801C83.4481 58.3845 83.3688 58.358 83.3072 58.3059C83.2456 58.2538 83.2064 58.1802 83.1977 58.1001C83.1889 58.0201 83.2113 57.9397 83.2602 57.8756C83.3091 57.8116 83.3808 57.7686 83.4605 57.7557L98.0814 55.3835L97.8334 57.5873Z" fill="#3F3D56"/>
<path d="M116.013 89.341L121.403 80.2986L125.387 82.1748C125.387 82.1748 118.522 90.7245 118.303 90.9704C118.397 91.386 118.362 91.8201 118.203 92.2154C118.044 92.6106 117.768 92.9484 117.412 93.184C117.056 93.4196 116.637 93.5419 116.21 93.5347C115.783 93.5276 115.368 93.3913 115.02 93.144C114.672 92.8966 114.408 92.5498 114.262 92.1495C114.116 91.7491 114.096 91.314 114.204 90.9019C114.311 90.4897 114.542 90.1197 114.865 89.841C115.188 89.5623 115.588 89.388 116.013 89.341Z" fill="#FFB6B6"/>
<path d="M118.255 68.3361L126.988 72.8792C127.534 73.2713 127.992 73.7726 128.332 74.351C128.673 74.9295 128.888 75.5724 128.965 76.2387C129.042 76.905 128.979 77.58 128.78 78.2205C128.58 78.8611 128.249 79.453 127.807 79.9586L121.786 86.845L119.163 83.3011L121.185 79.0864L117.27 78.0572L118.255 68.3361Z" fill="#6C63FF"/>
<path d="M93.3671 57.7351L92.3834 68.2085L87.9771 68.2159C87.9771 68.2159 90.5051 57.5575 90.597 57.2418C90.3338 56.9064 90.1789 56.4992 90.1528 56.074C90.1267 55.6489 90.2307 55.2259 90.451 54.861C90.6713 54.496 90.9974 54.2064 91.3864 54.0303C91.7754 53.8543 92.2088 53.8001 92.6293 53.875C93.0498 53.9499 93.4376 54.1503 93.7414 54.4497C94.0452 54.7491 94.2507 55.1335 94.3307 55.5519C94.4106 55.9703 94.3613 56.403 94.1893 56.7929C94.0172 57.1827 93.7305 57.5113 93.3671 57.7351V57.7351Z" fill="#FFB6B6"/>
<path d="M102.138 79.153L91.9964 77.2986C87.7258 76.7865 85.9732 73.9848 86.7438 71.252L89.2236 62.4574L93.1166 64.5384L93.1017 69.2104L98.5511 68.4675L102.138 79.153Z" fill="#6C63FF"/>
<path d="M97.9866 151.533H95.198L93.8714 140.808H97.9872L97.9866 151.533Z" fill="#FFB6B6"/>
<path d="M98.0849 154.433L89.5096 154.433V154.325C89.5097 153.442 89.8614 152.596 90.4873 151.972C91.1132 151.347 91.9621 150.997 92.8473 150.997H92.8476L94.4139 149.812L97.3364 150.997L98.085 150.997L98.0849 154.433Z" fill="#2F2E41"/>
<path d="M117.718 151.533H120.506L121.833 140.808H117.717L117.718 151.533Z" fill="#FFB6B6"/>
<path d="M117.619 154.433L126.195 154.433V154.325C126.195 153.442 125.843 152.596 125.217 151.972C124.591 151.347 123.742 150.997 122.857 150.997H122.857L121.29 149.812L118.368 150.997L117.619 150.997L117.619 154.433Z" fill="#2F2E41"/>
<path d="M93.7488 132.927C93.79 132.315 94.1174 128.931 94.1174 128.931L94.9017 121.753L96.2841 102.728L97.5163 97.7274L103.616 100.097L108.565 97.7309L114.447 99.6059L119.028 101.319C119.028 101.319 119.036 102.052 119.071 102.937C119.118 104.097 119.2 105.518 119.397 105.888C119.724 106.541 119.642 110.046 119.642 110.046C119.642 110.046 119.967 117.178 120.377 117.96C120.787 118.743 120.869 120.371 120.746 120.698C120.622 121.024 121.155 129.589 121.155 129.589C121.155 129.589 122.524 144.747 121.665 147.033C120.807 149.318 117.561 147.821 117.561 147.821C117.561 147.821 117.718 147.211 116.777 146.924C115.836 146.636 112.969 125.144 112.969 125.144C112.969 125.144 112.436 120.737 111.945 119.474C111.455 118.211 111.004 114.662 111.004 114.662C111.004 114.662 107.977 108.789 107.937 107.483C107.937 107.483 107.541 106.261 107.167 107.606C106.792 108.951 105.688 112.173 105.688 112.173L104.612 116.13L103.345 122.043L102.525 127.02C102.525 127.02 101.298 133.627 101.102 133.912C100.906 134.198 101.102 140.233 101.102 140.233C101.102 140.233 100.153 145.373 98.8116 146.27C97.4704 147.168 93.917 146.285 93.917 146.285C93.917 146.285 93.7076 133.539 93.7488 132.927Z" fill="#2F2E41"/>
<path d="M98.3084 81.6364L97.529 91.7033L96.3581 92.9116C96.2525 93.0206 96.1701 93.1496 96.1157 93.2911C96.0613 93.4326 96.0362 93.5835 96.0417 93.7349C96.0472 93.8863 96.0833 94.035 96.1478 94.1722C96.2124 94.3093 96.304 94.4321 96.4172 94.5331L95.7721 95.6361L95.5437 99.1117C95.4786 99.3821 95.4741 99.6635 95.5307 99.9359C95.5872 100.208 95.7034 100.465 95.8709 100.687C96.0383 100.91 96.253 101.092 96.4995 101.222C96.7461 101.353 97.0184 101.427 97.297 101.44L117.489 102.386C117.766 102.399 118.042 102.351 118.299 102.246C118.555 102.14 118.785 101.98 118.973 101.776C119.161 101.573 119.301 101.33 119.384 101.067C119.468 100.803 119.492 100.524 119.456 100.25L117.739 87.3622V86.3986L116.97 84.5375L117.365 78.3031L118.284 68.4077L112.942 67.032L110.046 65.0452L105.015 65.125L101.962 67.6251L97.8911 68.2608L94.8126 68.8709L94.4204 69.7207L95.2047 69.5507L98.0476 80.6064L98.3084 81.6364Z" fill="#6C63FF"/>
<path d="M107.418 63.6962C110.692 63.6962 113.345 61.0502 113.345 57.7863C113.345 54.5224 110.692 51.8765 107.418 51.8765C104.145 51.8765 101.491 54.5224 101.491 57.7863C101.491 61.0502 104.145 63.6962 107.418 63.6962Z" fill="#FFB6B6"/>
<path d="M105.989 63.3149L110.271 63.0972C110.82 63.0692 111.419 63.0209 111.818 62.6444C112.033 62.4119 112.198 62.1384 112.304 61.8404C112.699 60.9235 113.095 60.0065 113.481 59.0853C114.015 57.8111 114.539 56.4657 114.403 55.0915C114.371 54.464 114.107 53.8705 113.662 53.4256C113.435 53.2112 113.143 53.0779 112.832 53.0464C112.52 53.015 112.208 53.0872 111.942 53.2518C111.876 52.8172 111.712 52.4032 111.462 52.0411C111.212 51.6791 110.882 51.3785 110.498 51.1621C109.724 50.7352 108.839 50.5481 107.957 50.6247C106.677 50.707 105.455 51.1872 104.463 51.9977C104.184 52.2544 103.886 52.4898 103.572 52.7019C103.413 52.8074 103.235 52.8795 103.048 52.914C102.861 52.9485 102.669 52.9446 102.484 52.9026C102.3 52.8537 102.14 52.74 102.034 52.5828C101.928 52.4255 101.882 52.2352 101.906 52.047C101.604 52.2719 101.397 52.6007 101.326 52.9693C101.254 53.3379 101.323 53.72 101.518 54.0409C101.296 54.1337 101.053 54.1677 100.814 54.1394C100.575 54.1112 100.347 54.0217 100.152 53.8797C99.9441 53.9828 99.7597 54.1281 99.6109 54.3063C99.4622 54.4846 99.3524 54.6918 99.2887 54.9148C99.2249 55.1378 99.2086 55.3715 99.2407 55.6012C99.2728 55.8308 99.3526 56.0513 99.4751 56.2483C99.5976 56.4454 99.76 56.6149 99.9519 56.7458C100.144 56.8767 100.361 56.9662 100.59 57.0085C100.818 57.0509 101.053 57.0451 101.28 56.9917C101.506 56.9383 101.718 56.8383 101.904 56.6982C102.164 57.0612 102.067 57.5545 102.033 57.9992C101.999 58.4439 102.119 58.9966 102.549 59.1195C103.13 59.2857 103.601 58.5053 104.206 58.5136C104.355 58.5257 104.499 58.5743 104.624 58.6551C104.75 58.7359 104.854 58.8465 104.927 58.9769C105.069 59.239 105.167 59.523 105.215 59.8171L105.989 63.2908" fill="#2F2E41"/>
<path d="M272.964 116.454C272.964 115.539 272.656 114.796 272.277 114.794H169.109C168.729 114.796 168.422 115.539 168.42 116.454V154.126C168.42 154.211 168.389 154.293 168.331 154.356C168.274 154.419 168.195 154.458 168.111 154.466C167.834 154.493 167.557 154.517 167.28 154.54C167.273 154.54 167.266 154.542 167.259 154.542C167.109 154.556 166.958 154.566 166.807 154.578H166.806C166.728 154.435 166.651 154.291 166.576 154.145C166.55 154.096 166.537 154.042 166.537 153.987V114.301C166.537 114.048 166.547 113.794 166.564 113.543C166.589 113.198 166.631 112.855 166.693 112.515C166.982 110.929 167.636 109.855 168.379 109.852H273.005C273.113 109.852 273.221 109.875 273.32 109.918C273.466 109.983 273.598 110.075 273.709 110.19C273.859 110.345 273.987 110.52 274.091 110.71C274.517 111.558 274.762 112.484 274.812 113.43C274.812 113.44 274.813 113.451 274.813 113.461C274.837 113.738 274.849 114.019 274.847 114.301L274.871 117.96L274.887 120.142L274.933 126.988L274.95 129.42L275.026 154.381C275.026 154.472 274.989 154.559 274.925 154.623C274.861 154.687 274.774 154.723 274.683 154.723H273.306C273.216 154.723 273.128 154.687 273.064 154.623C273 154.559 272.964 154.472 272.964 154.381V116.454Z" fill="#E6E6E6"/>
<path d="M244.93 92.7308H233.813C233.656 92.7311 233.505 92.7936 233.394 92.9046C233.283 93.0156 233.221 93.1661 233.221 93.3229V110.833H245.523V93.3229C245.523 93.2451 245.508 93.1681 245.478 93.0963C245.449 93.0244 245.405 92.9591 245.35 92.9041C245.295 92.8492 245.229 92.8056 245.157 92.7758C245.085 92.7461 245.008 92.7308 244.93 92.7308ZM239.409 102.68C239.061 102.678 238.728 102.54 238.482 102.294C238.237 102.049 238.098 101.717 238.096 101.371V99.3512C238.096 99.004 238.234 98.6711 238.481 98.4257C238.727 98.1802 239.061 98.0423 239.409 98.0423C239.757 98.0423 240.091 98.1802 240.337 98.4257C240.583 98.6711 240.721 99.004 240.721 99.3512V101.371C240.72 101.717 240.581 102.049 240.335 102.294C240.089 102.54 239.756 102.678 239.409 102.68Z" fill="#CCCCCC"/>
<path d="M233.183 110.272V111.962C233.183 112.049 233.218 112.133 233.28 112.195C233.342 112.257 233.426 112.292 233.514 112.292H245.23C245.318 112.292 245.402 112.257 245.464 112.195C245.526 112.133 245.561 112.049 245.562 111.962V110.272H233.183Z" fill="#3F3D56"/>
<path d="M263.338 65.405H215.819C215.41 65.4056 215.019 65.5676 214.73 65.8555C214.442 66.1433 214.279 66.5335 214.279 66.9406V98.913C214.279 99.3202 214.441 99.7105 214.73 99.9984C215.019 100.286 215.41 100.448 215.819 100.449H263.338C263.746 100.448 264.138 100.286 264.426 99.9984C264.715 99.7105 264.877 99.3202 264.878 98.913V66.9406C264.877 66.5335 264.715 66.1433 264.426 65.8555C264.137 65.5676 263.746 65.4056 263.338 65.405Z" fill="#E6E6E6"/>
<path d="M262.941 66.5142H216.216C215.997 66.5146 215.788 66.6015 215.633 66.7558C215.479 66.9101 215.392 67.1192 215.392 67.3371V98.5171C215.392 98.7348 215.479 98.9435 215.634 99.0974C215.788 99.2513 215.997 99.338 216.216 99.3383H262.941C263.159 99.338 263.369 99.2513 263.523 99.0974C263.677 98.9435 263.764 98.7348 263.765 98.5171V67.3371C263.765 67.1192 263.678 66.9101 263.524 66.7558C263.369 66.6015 263.16 66.5146 262.941 66.5142Z" fill="white"/>
<path d="M253.84 112.88H226.041C225.965 112.88 225.889 112.863 225.821 112.83C225.752 112.798 225.692 112.75 225.644 112.691C225.596 112.632 225.562 112.564 225.544 112.49C225.526 112.416 225.525 112.339 225.54 112.265L225.972 110.222C225.996 110.108 226.059 110.006 226.15 109.932C226.241 109.858 226.355 109.818 226.472 109.817H253.409C253.526 109.818 253.639 109.858 253.73 109.932C253.821 110.006 253.884 110.108 253.909 110.222L254.34 112.265C254.356 112.339 254.355 112.416 254.337 112.49C254.319 112.564 254.285 112.632 254.237 112.691C254.189 112.75 254.128 112.798 254.06 112.83C253.991 112.863 253.916 112.88 253.84 112.88Z" fill="#CCCCCC"/>
<path d="M227.375 110.185H226.82C226.737 110.185 226.669 110.252 226.669 110.335V110.548C226.669 110.63 226.737 110.697 226.82 110.697H227.375C227.458 110.697 227.526 110.63 227.526 110.548V110.335C227.526 110.252 227.458 110.185 227.375 110.185Z" fill="#E6E6E6"/>
<path d="M229.088 110.185H228.532C228.449 110.185 228.382 110.252 228.382 110.335V110.548C228.382 110.63 228.449 110.697 228.532 110.697H229.088C229.171 110.697 229.238 110.63 229.238 110.548V110.335C229.238 110.252 229.171 110.185 229.088 110.185Z" fill="#E6E6E6"/>
<path d="M230.8 110.185H230.244C230.161 110.185 230.094 110.252 230.094 110.335V110.548C230.094 110.63 230.161 110.697 230.244 110.697H230.8C230.883 110.697 230.95 110.63 230.95 110.548V110.335C230.95 110.252 230.883 110.185 230.8 110.185Z" fill="#E6E6E6"/>
<path d="M232.513 110.185H231.957C231.874 110.185 231.807 110.252 231.807 110.335V110.548C231.807 110.63 231.874 110.697 231.957 110.697H232.513C232.595 110.697 232.663 110.63 232.663 110.548V110.335C232.663 110.252 232.595 110.185 232.513 110.185Z" fill="#E6E6E6"/>
<path d="M234.225 110.185H233.669C233.586 110.185 233.519 110.252 233.519 110.335V110.548C233.519 110.63 233.586 110.697 233.669 110.697H234.225C234.308 110.697 234.375 110.63 234.375 110.548V110.335C234.375 110.252 234.308 110.185 234.225 110.185Z" fill="#E6E6E6"/>
<path d="M235.937 110.185H235.381C235.298 110.185 235.231 110.252 235.231 110.335V110.548C235.231 110.63 235.298 110.697 235.381 110.697H235.937C236.02 110.697 236.087 110.63 236.087 110.548V110.335C236.087 110.252 236.02 110.185 235.937 110.185Z" fill="#E6E6E6"/>
<path d="M237.65 110.185H237.094C237.011 110.185 236.944 110.252 236.944 110.335V110.548C236.944 110.63 237.011 110.697 237.094 110.697H237.65C237.733 110.697 237.8 110.63 237.8 110.548V110.335C237.8 110.252 237.733 110.185 237.65 110.185Z" fill="#E6E6E6"/>
<path d="M239.362 110.185H238.806C238.723 110.185 238.656 110.252 238.656 110.335V110.548C238.656 110.63 238.723 110.697 238.806 110.697H239.362C239.445 110.697 239.512 110.63 239.512 110.548V110.335C239.512 110.252 239.445 110.185 239.362 110.185Z" fill="#E6E6E6"/>
<path d="M241.074 110.185H240.519C240.436 110.185 240.368 110.252 240.368 110.335V110.548C240.368 110.63 240.436 110.697 240.519 110.697H241.074C241.157 110.697 241.225 110.63 241.225 110.548V110.335C241.225 110.252 241.157 110.185 241.074 110.185Z" fill="#E6E6E6"/>
<path d="M242.787 110.185H242.231C242.148 110.185 242.081 110.252 242.081 110.335V110.548C242.081 110.63 242.148 110.697 242.231 110.697H242.787C242.87 110.697 242.937 110.63 242.937 110.548V110.335C242.937 110.252 242.87 110.185 242.787 110.185Z" fill="#E6E6E6"/>
<path d="M244.499 110.185H243.943C243.86 110.185 243.793 110.252 243.793 110.335V110.548C243.793 110.63 243.86 110.697 243.943 110.697H244.499C244.582 110.697 244.649 110.63 244.649 110.548V110.335C244.649 110.252 244.582 110.185 244.499 110.185Z" fill="#E6E6E6"/>
<path d="M246.211 110.185H245.656C245.573 110.185 245.505 110.252 245.505 110.335V110.548C245.505 110.63 245.573 110.697 245.656 110.697H246.211C246.294 110.697 246.362 110.63 246.362 110.548V110.335C246.362 110.252 246.294 110.185 246.211 110.185Z" fill="#E6E6E6"/>
<path d="M247.924 110.185H247.368C247.285 110.185 247.218 110.252 247.218 110.335V110.548C247.218 110.63 247.285 110.697 247.368 110.697H247.924C248.007 110.697 248.074 110.63 248.074 110.548V110.335C248.074 110.252 248.007 110.185 247.924 110.185Z" fill="#E6E6E6"/>
<path d="M249.636 110.185H249.08C248.997 110.185 248.93 110.252 248.93 110.335V110.548C248.93 110.63 248.997 110.697 249.08 110.697H249.636C249.719 110.697 249.786 110.63 249.786 110.548V110.335C249.786 110.252 249.719 110.185 249.636 110.185Z" fill="#E6E6E6"/>
<path d="M251.349 110.185H250.793C250.71 110.185 250.643 110.252 250.643 110.335V110.548C250.643 110.63 250.71 110.697 250.793 110.697H251.349C251.432 110.697 251.499 110.63 251.499 110.548V110.335C251.499 110.252 251.432 110.185 251.349 110.185Z" fill="#E6E6E6"/>
<path d="M253.061 110.185H252.505C252.422 110.185 252.355 110.252 252.355 110.335V110.548C252.355 110.63 252.422 110.697 252.505 110.697H253.061C253.144 110.697 253.211 110.63 253.211 110.548V110.335C253.211 110.252 253.144 110.185 253.061 110.185Z" fill="#E6E6E6"/>
<path d="M227.355 111.039H226.799C226.716 111.039 226.649 111.106 226.649 111.189V111.401C226.649 111.484 226.716 111.551 226.799 111.551H227.355C227.438 111.551 227.505 111.484 227.505 111.401V111.189C227.505 111.106 227.438 111.039 227.355 111.039Z" fill="#E6E6E6"/>
<path d="M229.068 111.039H228.512C228.429 111.039 228.362 111.106 228.362 111.189V111.401C228.362 111.484 228.429 111.551 228.512 111.551H229.068C229.15 111.551 229.218 111.484 229.218 111.401V111.189C229.218 111.106 229.15 111.039 229.068 111.039Z" fill="#E6E6E6"/>
<path d="M230.78 111.039H230.224C230.141 111.039 230.074 111.106 230.074 111.189V111.401C230.074 111.484 230.141 111.551 230.224 111.551H230.78C230.863 111.551 230.93 111.484 230.93 111.401V111.189C230.93 111.106 230.863 111.039 230.78 111.039Z" fill="#E6E6E6"/>
<path d="M232.492 111.039H231.936C231.854 111.039 231.786 111.106 231.786 111.189V111.401C231.786 111.484 231.854 111.551 231.936 111.551H232.492C232.575 111.551 232.642 111.484 232.642 111.401V111.189C232.642 111.106 232.575 111.039 232.492 111.039Z" fill="#E6E6E6"/>
<path d="M234.205 111.039H233.649C233.566 111.039 233.499 111.106 233.499 111.189V111.401C233.499 111.484 233.566 111.551 233.649 111.551H234.205C234.288 111.551 234.355 111.484 234.355 111.401V111.189C234.355 111.106 234.288 111.039 234.205 111.039Z" fill="#E6E6E6"/>
<path d="M235.917 111.039H235.361C235.278 111.039 235.211 111.106 235.211 111.189V111.401C235.211 111.484 235.278 111.551 235.361 111.551H235.917C236 111.551 236.067 111.484 236.067 111.401V111.189C236.067 111.106 236 111.039 235.917 111.039Z" fill="#E6E6E6"/>
<path d="M237.629 111.039H237.074C236.991 111.039 236.923 111.106 236.923 111.189V111.401C236.923 111.484 236.991 111.551 237.074 111.551H237.629C237.712 111.551 237.78 111.484 237.78 111.401V111.189C237.78 111.106 237.712 111.039 237.629 111.039Z" fill="#E6E6E6"/>
<path d="M239.342 111.039H238.786C238.703 111.039 238.636 111.106 238.636 111.189V111.401C238.636 111.484 238.703 111.551 238.786 111.551H239.342C239.425 111.551 239.492 111.484 239.492 111.401V111.189C239.492 111.106 239.425 111.039 239.342 111.039Z" fill="#E6E6E6"/>
<path d="M241.054 111.039H240.498C240.415 111.039 240.348 111.106 240.348 111.189V111.401C240.348 111.484 240.415 111.551 240.498 111.551H241.054C241.137 111.551 241.204 111.484 241.204 111.401V111.189C241.204 111.106 241.137 111.039 241.054 111.039Z" fill="#E6E6E6"/>
<path d="M242.766 111.039H242.211C242.128 111.039 242.06 111.106 242.06 111.189V111.401C242.06 111.484 242.128 111.551 242.211 111.551H242.766C242.849 111.551 242.917 111.484 242.917 111.401V111.189C242.917 111.106 242.849 111.039 242.766 111.039Z" fill="#E6E6E6"/>
<path d="M244.479 111.039H243.923C243.84 111.039 243.773 111.106 243.773 111.189V111.401C243.773 111.484 243.84 111.551 243.923 111.551H244.479C244.562 111.551 244.629 111.484 244.629 111.401V111.189C244.629 111.106 244.562 111.039 244.479 111.039Z" fill="#E6E6E6"/>
<path d="M246.191 111.039H245.635C245.552 111.039 245.485 111.106 245.485 111.189V111.401C245.485 111.484 245.552 111.551 245.635 111.551H246.191C246.274 111.551 246.341 111.484 246.341 111.401V111.189C246.341 111.106 246.274 111.039 246.191 111.039Z" fill="#E6E6E6"/>
<path d="M247.904 111.039H247.348C247.265 111.039 247.198 111.106 247.198 111.189V111.401C247.198 111.484 247.265 111.551 247.348 111.551H247.904C247.987 111.551 248.054 111.484 248.054 111.401V111.189C248.054 111.106 247.987 111.039 247.904 111.039Z" fill="#E6E6E6"/>
<path d="M249.616 111.039H249.06C248.977 111.039 248.91 111.106 248.91 111.189V111.401C248.91 111.484 248.977 111.551 249.06 111.551H249.616C249.699 111.551 249.766 111.484 249.766 111.401V111.189C249.766 111.106 249.699 111.039 249.616 111.039Z" fill="#E6E6E6"/>
<path d="M251.328 111.039H250.773C250.69 111.039 250.622 111.106 250.622 111.189V111.401C250.622 111.484 250.69 111.551 250.773 111.551H251.328C251.411 111.551 251.479 111.484 251.479 111.401V111.189C251.479 111.106 251.411 111.039 251.328 111.039Z" fill="#E6E6E6"/>
<path d="M253.041 111.039H252.485C252.402 111.039 252.335 111.106 252.335 111.189V111.401C252.335 111.484 252.402 111.551 252.485 111.551H253.041C253.124 111.551 253.191 111.484 253.191 111.401V111.189C253.191 111.106 253.124 111.039 253.041 111.039Z" fill="#E6E6E6"/>
<path d="M241.568 112.063H235.019C234.936 112.063 234.869 112.13 234.869 112.213V112.426C234.869 112.509 234.936 112.576 235.019 112.576H241.568C241.651 112.576 241.718 112.509 241.718 112.426V112.213C241.718 112.13 241.651 112.063 241.568 112.063Z" fill="#E6E6E6"/>
<path d="M260.592 70.81H216.872C216.826 70.809 216.783 70.7903 216.751 70.7579C216.719 70.7255 216.701 70.682 216.701 70.6367C216.701 70.5914 216.719 70.5478 216.751 70.5154C216.783 70.483 216.826 70.4643 216.872 70.4633H260.592C260.638 70.4643 260.681 70.483 260.713 70.5154C260.745 70.5478 260.762 70.5914 260.762 70.6367C260.762 70.682 260.745 70.7255 260.713 70.7579C260.681 70.7903 260.638 70.809 260.592 70.81Z" fill="#CACACA"/>
<path d="M219.848 69.5782C220.41 69.5782 220.867 69.1132 220.867 68.5396C220.867 67.966 220.41 67.501 219.848 67.501C219.285 67.501 218.829 67.966 218.829 68.5396C218.829 69.1132 219.285 69.5782 219.848 69.5782Z" fill="#CCCCCC"/>
<path d="M223.368 69.5782C223.93 69.5782 224.387 69.1132 224.387 68.5396C224.387 67.966 223.93 67.501 223.368 67.501C222.805 67.501 222.349 67.966 222.349 68.5396C222.349 69.1132 222.805 69.5782 223.368 69.5782Z" fill="#CCCCCC"/>
<path d="M226.888 69.5782C227.45 69.5782 227.906 69.1132 227.906 68.5396C227.906 67.966 227.45 67.501 226.888 67.501C226.325 67.501 225.869 67.966 225.869 68.5396C225.869 69.1132 226.325 69.5782 226.888 69.5782Z" fill="#CCCCCC"/>
<path d="M258.473 67.7584H255.973C255.923 67.7594 255.876 67.7797 255.841 67.815C255.806 67.8503 255.787 67.8978 255.787 67.9472C255.787 67.9966 255.806 68.0441 255.841 68.0794C255.876 68.1147 255.923 68.135 255.973 68.136H258.473C258.523 68.135 258.57 68.1147 258.604 68.0794C258.639 68.0441 258.659 67.9966 258.659 67.9472C258.659 67.8978 258.639 67.8503 258.604 67.815C258.57 67.7797 258.523 67.7594 258.473 67.7584H258.473Z" fill="#CCCCCC"/>
<path d="M258.473 68.467H255.973C255.923 68.468 255.876 68.4884 255.841 68.5236C255.806 68.5589 255.787 68.6064 255.787 68.6558C255.787 68.7052 255.806 68.7527 255.841 68.788C255.876 68.8233 255.923 68.8436 255.973 68.8446H258.473C258.523 68.8436 258.57 68.8233 258.604 68.788C258.639 68.7527 258.659 68.7052 258.659 68.6558C258.659 68.6064 258.639 68.5589 258.604 68.5236C258.57 68.4884 258.523 68.468 258.473 68.467H258.473Z" fill="#CCCCCC"/>
<path d="M258.473 69.1747H255.973C255.923 69.1757 255.876 69.196 255.841 69.2313C255.806 69.2666 255.787 69.314 255.787 69.3635C255.787 69.4129 255.806 69.4603 255.841 69.4956C255.876 69.5309 255.923 69.5512 255.973 69.5522H258.473C258.523 69.5512 258.57 69.5309 258.604 69.4956C258.639 69.4603 258.659 69.4129 258.659 69.3635C258.659 69.314 258.639 69.2666 258.604 69.2313C258.57 69.196 258.523 69.1757 258.473 69.1747H258.473Z" fill="#CCCCCC"/>
<path d="M242.262 80.2548H236.799C236.388 80.2548 236.056 80.5865 236.056 80.9956C236.056 81.4048 236.388 81.7365 236.799 81.7365H242.262C242.672 81.7365 243.005 81.4048 243.005 80.9956C243.005 80.5865 242.672 80.2548 242.262 80.2548Z" fill="#6C63FF"/>
<path d="M245.791 83.2181H233.27C232.859 83.2181 232.527 83.5498 232.527 83.959C232.527 84.3681 232.859 84.6998 233.27 84.6998H245.791C246.202 84.6998 246.534 84.3681 246.534 83.959C246.534 83.5498 246.202 83.2181 245.791 83.2181Z" fill="#E6E6E6"/>
<path d="M245.791 86.1815H233.27C232.859 86.1815 232.527 86.5131 232.527 86.9223C232.527 87.3314 232.859 87.6631 233.27 87.6631H245.791C246.202 87.6631 246.534 87.3314 246.534 86.9223C246.534 86.5131 246.202 86.1815 245.791 86.1815Z" fill="#E6E6E6"/>
<path d="M161.432 132.347L158.913 131.146L162.373 120.649L166.09 122.422L161.432 132.347Z" fill="#FFB6B6"/>
<path d="M178.316 130.655C178.133 130.769 177.95 130.881 177.765 130.994C177.397 131.219 177.025 131.44 176.653 131.658C176.466 131.767 176.277 131.876 176.091 131.983V131.988L176.079 131.99L176.076 131.992L175.791 132.062L175.382 130.985L175.193 130.489L174.927 129.786L174.439 128.5L171.867 121.731L175.865 120.748L176.015 121.358H176.017L176.091 121.661L177.487 127.309L177.772 128.463L177.781 128.498L177.953 129.188L178.101 129.786L178.266 130.454L178.316 130.655Z" fill="#FFB6B6"/>
<path d="M202.164 106.882C201.91 107.288 201.651 107.692 201.39 108.092C200.906 108.837 200.408 109.571 199.898 110.294C199.898 110.296 199.896 110.296 199.894 110.298C199.596 110.573 199.267 110.813 198.913 111.012C198.899 111.023 198.882 111.03 198.867 111.04C198.607 111.183 198.33 111.294 198.042 111.37C197.938 111.395 197.833 111.421 197.729 111.447C197.356 111.536 196.986 111.611 196.618 111.678C195.963 111.794 195.315 111.877 194.672 111.929C194.62 111.934 194.568 111.938 194.516 111.941C191.869 112.135 189.292 111.823 186.602 111.313C185.274 111.062 183.918 110.761 182.514 110.449C182.055 110.346 181.594 110.245 181.128 110.143C181.093 110.136 181.056 110.126 181.019 110.119C180.353 109.973 179.676 109.83 178.982 109.687C178.109 109.509 177.208 109.335 176.272 109.171L176.339 110.486C176.394 111.498 176.605 112.495 176.964 113.443C177.364 114.609 177.68 115.531 177.012 117.451L176.69 118.381C176.857 118.842 176.914 119.336 176.858 119.824C176.801 120.311 176.631 120.779 176.363 121.19L176.298 121.288L178.982 128.059L179.156 128.498H177.782L176.091 128.5H173.225L169.091 120.229L168.893 119.834V119.814L169.32 103.92C169.326 103.779 169.337 103.637 169.355 103.497C169.431 102.86 169.633 102.244 169.949 101.685C170.266 101.127 170.691 100.637 171.2 100.244C171.687 99.8637 172.246 99.5843 172.842 99.4215C173.439 99.2587 174.062 99.2159 174.676 99.2954L176.091 99.4781L178.982 99.8507L181.019 100.114L181.06 100.12L187.066 100.895L187.498 99.1423L187.577 99.1128L190.106 98.1887L198.852 94.9922L198.875 94.9848L199.45 94.7745L199.518 94.8852C199.539 94.9184 199.559 94.9516 199.578 94.9848C200.146 96.0013 200.609 97.073 200.959 98.1832C201.548 99.9969 202.033 101.843 202.412 103.711C202.428 103.792 202.443 103.866 202.456 103.933L202.462 103.953C202.467 103.984 202.471 104.005 202.473 104.01C202.646 104.977 202.539 105.974 202.164 106.882Z" fill="#2F2E41"/>
<path d="M202.533 101.024C202.505 100.906 202.47 100.787 202.433 100.67C202.139 99.7902 201.797 98.9269 201.408 98.0843C200.972 97.1252 200.448 96.0978 199.825 94.9855C199.523 94.4469 199.199 93.8868 198.852 93.3052C198.678 93.0137 198.497 92.7168 198.31 92.4143C198.302 92.4003 198.294 92.3868 198.285 92.3737L198.232 92.2852L189.578 93.4398L186.355 93.8696L186.163 95.4706L186.117 95.8672C186.115 95.8672 186.115 95.8672 186.117 95.8691L185.987 96.9499V96.9518L185.815 98.3794L185.8 98.3776L181.018 97.7597L176.09 97.1233L173.443 96.7821C172.829 96.7024 172.206 96.7452 171.609 96.9079C171.013 97.0707 170.454 97.3502 169.967 97.7302C169.458 98.1234 169.033 98.6136 168.717 99.1722C168.4 99.7308 168.198 100.347 168.123 100.984C168.106 101.113 168.095 101.246 168.089 101.377L165.592 107.277C164.097 110.806 163.146 114.54 162.769 118.352L160.937 124.19L161.198 124.214L165.079 124.573L166.104 124.669L168.361 121.384C168.618 121.01 168.862 120.624 169.09 120.23C169.465 119.585 169.798 118.917 170.087 118.23L174.969 106.647C175.346 106.711 175.72 106.773 176.09 106.831C177.801 107.108 179.444 107.333 181.018 107.508C186.137 108.078 190.569 108.122 194.515 107.639C195.623 107.504 196.695 107.327 197.729 107.108C198.108 107.028 198.482 106.943 198.852 106.851C198.938 106.831 199.024 106.811 199.109 106.789C199.873 106.592 200.576 106.207 201.153 105.67C201.73 105.132 202.162 104.459 202.411 103.712C202.707 102.846 202.75 101.914 202.533 101.024Z" fill="#2F2E41"/>
<path d="M162.236 130.633L159.511 129.33L159.084 129.126L158.401 130.797L153.636 131.843C153.4 131.894 153.187 132.02 153.028 132.2C152.869 132.381 152.772 132.608 152.751 132.847C152.731 133.087 152.787 133.327 152.913 133.532C153.039 133.737 153.227 133.897 153.451 133.988L158.107 135.882L159.585 134.556L159.223 136.336L160.976 137.05L162.898 130.95L162.236 130.633Z" fill="#2F2E41"/>
<path d="M178.982 128.059L179.156 128.498H178.982V128.059Z" fill="#2F2E41"/>
<path d="M178.033 128.592L175.178 129.578L174.73 129.732L175.424 131.399L172.776 135.485C172.645 135.687 172.582 135.925 172.597 136.166C172.611 136.406 172.702 136.635 172.857 136.82C173.011 137.004 173.221 137.135 173.455 137.193C173.689 137.25 173.936 137.231 174.158 137.139L178.804 135.219L178.918 133.239L179.917 134.759L181.667 134.035L178.728 128.353L178.033 128.592Z" fill="#2F2E41"/>
<path d="M160.704 67.5616C160.839 67.8246 161.031 68.0548 161.265 68.2359C161.499 68.4171 161.77 68.5449 162.059 68.6102C162.349 68.6756 162.649 68.6769 162.938 68.6142C163.228 68.5514 163.5 68.4261 163.736 68.247L169.74 72.2211L169.752 68.4872L164.048 65.2858C163.72 64.9106 163.266 64.6684 162.771 64.6051C162.276 64.5418 161.774 64.6618 161.362 64.9423C160.95 65.2229 160.655 65.6444 160.534 66.1272C160.412 66.6099 160.473 67.1203 160.704 67.5616V67.5616Z" fill="#FFB6B6"/>
<path d="M165.189 69.2874L167.99 66.1099L179.396 72.8613L194.516 71.4807C195.263 71.4125 196.016 71.5092 196.722 71.7639C197.428 72.0186 198.068 72.425 198.599 72.9544C199.129 73.4838 199.536 74.1231 199.791 74.827C200.046 75.5308 200.142 76.282 200.073 77.0271C199.946 78.3728 199.29 79.6135 198.247 80.4771C197.204 81.3406 195.861 81.7564 194.511 81.6333L177.482 80.0618L165.189 69.2874Z" fill="#CCCCCC"/>
<path d="M200.281 69.3365L200.255 69.3036C198.128 69.0943 195.986 69.5048 194.088 70.4852C192.191 71.4656 190.619 72.9739 189.564 74.8272L188.281 77.0809C184.13 82.1401 187.146 85.6292 187.327 86.148L185.886 92.7712L186.209 94.9878L186.37 95.6462L202.815 104.214C203.751 99.7286 202.846 95.9065 199.435 92.9866L202.735 82.7478C203.467 80.4839 203.626 78.0748 203.198 75.7348C202.77 73.3949 201.768 71.1969 200.281 69.3365Z" fill="#CCCCCC"/>
<path d="M187.206 119.078H181.931C181.64 119.078 181.36 118.973 181.141 118.784C180.922 118.594 180.779 118.332 180.738 118.045C180.413 115.656 180.413 113.233 180.738 110.843C180.779 110.56 180.919 110.301 181.134 110.111C181.348 109.922 181.624 109.815 181.91 109.81C183.57 109.069 185.357 109.069 187.224 109.81C187.398 109.813 187.569 109.853 187.725 109.928C187.882 110.003 188.02 110.112 188.13 110.246C188.245 110.386 188.327 110.549 188.37 110.724C188.414 110.899 188.418 111.082 188.382 111.259C187.958 113.361 187.958 115.527 188.382 117.63C188.418 117.806 188.414 117.989 188.37 118.164C188.327 118.339 188.245 118.503 188.13 118.642C188.018 118.779 187.877 118.889 187.717 118.964C187.557 119.04 187.382 119.079 187.206 119.078Z" fill="#6C63FF"/>
<path d="M186.653 112.556H182.213C182.177 112.557 182.14 112.55 182.106 112.536C182.072 112.522 182.042 112.502 182.016 112.476C181.989 112.45 181.969 112.42 181.955 112.386C181.941 112.352 181.933 112.316 181.933 112.28C181.933 112.243 181.941 112.207 181.955 112.173C181.969 112.139 181.989 112.109 182.016 112.083C182.042 112.057 182.072 112.037 182.106 112.023C182.14 112.009 182.177 112.003 182.213 112.003H186.653C186.69 112.003 186.726 112.009 186.76 112.023C186.794 112.037 186.825 112.057 186.851 112.083C186.877 112.109 186.898 112.139 186.912 112.173C186.926 112.207 186.933 112.243 186.933 112.28C186.933 112.316 186.926 112.352 186.912 112.386C186.898 112.42 186.877 112.45 186.851 112.476C186.825 112.502 186.794 112.522 186.76 112.536C186.726 112.55 186.69 112.557 186.653 112.556Z" fill="white"/>
<path d="M186.653 114.77H182.213C182.177 114.77 182.14 114.763 182.106 114.749C182.072 114.735 182.042 114.715 182.016 114.689C181.989 114.664 181.969 114.633 181.955 114.599C181.941 114.566 181.933 114.529 181.933 114.493C181.933 114.456 181.941 114.42 181.955 114.386C181.969 114.353 181.989 114.322 182.016 114.296C182.042 114.271 182.072 114.25 182.106 114.237C182.14 114.223 182.177 114.216 182.213 114.216H186.653C186.69 114.216 186.726 114.223 186.76 114.237C186.794 114.25 186.825 114.271 186.851 114.296C186.877 114.322 186.898 114.353 186.912 114.386C186.926 114.42 186.933 114.456 186.933 114.493C186.933 114.529 186.926 114.566 186.912 114.599C186.898 114.633 186.877 114.664 186.851 114.689C186.825 114.715 186.794 114.735 186.76 114.749C186.726 114.763 186.69 114.77 186.653 114.77Z" fill="white"/>
<path d="M186.653 116.983H182.213C182.177 116.983 182.14 116.977 182.106 116.963C182.072 116.949 182.041 116.929 182.015 116.903C181.989 116.877 181.969 116.847 181.955 116.813C181.94 116.779 181.933 116.743 181.933 116.706C181.933 116.67 181.94 116.634 181.955 116.6C181.969 116.566 181.989 116.536 182.015 116.51C182.041 116.484 182.072 116.464 182.106 116.45C182.14 116.436 182.177 116.429 182.213 116.43H186.653C186.69 116.429 186.726 116.436 186.76 116.45C186.794 116.464 186.825 116.484 186.851 116.51C186.877 116.536 186.898 116.566 186.912 116.6C186.926 116.634 186.933 116.67 186.933 116.706C186.933 116.743 186.926 116.779 186.912 116.813C186.898 116.847 186.877 116.877 186.851 116.903C186.825 116.929 186.794 116.949 186.76 116.963C186.726 116.977 186.69 116.983 186.653 116.983Z" fill="white"/>
<path d="M161.671 69.3846H156.396C156.106 69.3844 155.825 69.2798 155.606 69.09C155.387 68.9003 155.244 68.6381 155.203 68.3517C154.878 65.9619 154.878 63.5391 155.203 61.1493C155.244 60.8664 155.384 60.6069 155.599 60.4177C155.813 60.2284 156.089 60.1217 156.375 60.1167C158.035 59.3749 159.822 59.375 161.689 60.1166C161.863 60.1189 162.034 60.1591 162.19 60.2344C162.347 60.3097 162.485 60.4182 162.595 60.5524C162.71 60.692 162.792 60.8553 162.836 61.0305C162.879 61.2057 162.883 61.3883 162.847 61.5652C162.423 63.6677 162.423 65.8333 162.847 67.9359C162.883 68.1127 162.879 68.2954 162.836 68.4706C162.792 68.6457 162.71 68.8091 162.595 68.9487C162.483 69.0852 162.342 69.1952 162.182 69.2706C162.022 69.346 161.848 69.3849 161.671 69.3846Z" fill="#6C63FF"/>
<path d="M161.118 62.8626H156.678C156.642 62.8629 156.605 62.856 156.571 62.8422C156.538 62.8284 156.507 62.8081 156.481 62.7824C156.455 62.7567 156.434 62.7261 156.42 62.6923C156.406 62.6586 156.398 62.6224 156.398 62.5859C156.398 62.5493 156.406 62.5132 156.42 62.4794C156.434 62.4457 156.455 62.4151 156.481 62.3894C156.507 62.3637 156.538 62.3433 156.571 62.3296C156.605 62.3158 156.642 62.3089 156.678 62.3092H161.118C161.155 62.3089 161.191 62.3158 161.225 62.3296C161.259 62.3433 161.29 62.3637 161.316 62.3894C161.342 62.4151 161.363 62.4457 161.377 62.4794C161.391 62.5132 161.398 62.5493 161.398 62.5859C161.398 62.6224 161.391 62.6586 161.377 62.6923C161.363 62.7261 161.342 62.7567 161.316 62.7824C161.29 62.8081 161.259 62.8284 161.225 62.8422C161.191 62.856 161.155 62.8629 161.118 62.8626Z" fill="white"/>
<path d="M161.118 65.0759H156.678C156.642 65.0763 156.605 65.0694 156.571 65.0556C156.538 65.0418 156.507 65.0215 156.481 64.9958C156.455 64.9701 156.434 64.9395 156.42 64.9057C156.406 64.872 156.398 64.8358 156.398 64.7993C156.398 64.7627 156.406 64.7266 156.42 64.6928C156.434 64.6591 156.455 64.6285 156.481 64.6028C156.507 64.577 156.538 64.5567 156.571 64.543C156.605 64.5292 156.642 64.5223 156.678 64.5226H161.118C161.155 64.5223 161.191 64.5292 161.225 64.543C161.259 64.5567 161.29 64.577 161.316 64.6028C161.342 64.6285 161.363 64.6591 161.377 64.6928C161.391 64.7266 161.398 64.7627 161.398 64.7993C161.398 64.8358 161.391 64.872 161.377 64.9057C161.363 64.9395 161.342 64.9701 161.316 64.9958C161.29 65.0215 161.259 65.0418 161.225 65.0556C161.191 65.0694 161.155 65.0763 161.118 65.0759Z" fill="white"/>
<path d="M161.118 67.2894H156.678C156.642 67.2897 156.605 67.2828 156.571 67.2691C156.537 67.2553 156.507 67.235 156.481 67.2093C156.454 67.1836 156.434 67.1529 156.42 67.1192C156.406 67.0855 156.398 67.0493 156.398 67.0127C156.398 66.9762 156.406 66.94 156.42 66.9062C156.434 66.8725 156.454 66.8419 156.481 66.8161C156.507 66.7904 156.537 66.7701 156.571 66.7563C156.605 66.7426 156.642 66.7357 156.678 66.736H161.118C161.155 66.7357 161.191 66.7426 161.225 66.7563C161.259 66.7701 161.29 66.7904 161.316 66.8161C161.342 66.8419 161.363 66.8725 161.377 66.9062C161.391 66.94 161.398 66.9762 161.398 67.0127C161.398 67.0493 161.391 67.0855 161.377 67.1192C161.363 67.1529 161.342 67.1836 161.316 67.2093C161.29 67.235 161.259 67.2553 161.225 67.2691C161.191 67.2828 161.155 67.2897 161.118 67.2894Z" fill="white"/>
<path d="M69.0683 82.8816H63.7933C63.5032 82.8814 63.2229 82.7768 63.0038 82.587C62.7848 82.3973 62.6418 82.1351 62.6011 81.8487C62.2754 79.4589 62.2754 77.0362 62.6011 74.6464C62.6413 74.3634 62.7814 74.104 62.9963 73.9147C63.2111 73.7254 63.4865 73.6187 63.7731 73.6137C65.4328 72.8719 67.2201 72.872 69.0865 73.6136C69.2603 73.6159 69.4315 73.6561 69.5881 73.7314C69.7446 73.8067 69.8828 73.9152 69.9928 74.0494C70.1075 74.189 70.1896 74.3523 70.2331 74.5275C70.2766 74.7027 70.2804 74.8853 70.2443 75.0622C69.8206 77.1647 69.8206 79.3303 70.2443 81.4329C70.2804 81.6097 70.2766 81.7924 70.2331 81.9676C70.1896 82.1428 70.1075 82.3061 69.9928 82.4457C69.8809 82.5822 69.7398 82.6922 69.5799 82.7676C69.42 82.843 69.2452 82.8819 69.0683 82.8816Z" fill="#6C63FF"/>
<path d="M68.5159 76.3596H64.0761C64.0394 76.3599 64.0031 76.353 63.9691 76.3392C63.9352 76.3255 63.9043 76.3051 63.8783 76.2794C63.8522 76.2537 63.8316 76.2231 63.8175 76.1893C63.8034 76.1556 63.7961 76.1194 63.7961 76.0829C63.7961 76.0464 63.8034 76.0102 63.8175 75.9764C63.8316 75.9427 63.8522 75.9121 63.8783 75.8864C63.9043 75.8607 63.9352 75.8403 63.9691 75.8266C64.0031 75.8128 64.0394 75.8059 64.0761 75.8062H68.5159C68.5525 75.8059 68.5889 75.8128 68.6228 75.8266C68.6568 75.8403 68.6876 75.8607 68.7137 75.8864C68.7397 75.9121 68.7603 75.9427 68.7744 75.9764C68.7885 76.0102 68.7958 76.0464 68.7958 76.0829C68.7958 76.1194 68.7885 76.1556 68.7744 76.1893C68.7603 76.2231 68.7397 76.2537 68.7137 76.2794C68.6876 76.3051 68.6568 76.3255 68.6228 76.3392C68.5889 76.353 68.5525 76.3599 68.5159 76.3596Z" fill="white"/>
<path d="M68.5159 78.573H64.0761C64.0394 78.5733 64.0031 78.5664 63.9691 78.5527C63.9352 78.5389 63.9043 78.5186 63.8783 78.4928C63.8522 78.4671 63.8316 78.4365 63.8175 78.4028C63.8034 78.3691 63.7961 78.3329 63.7961 78.2963C63.7961 78.2598 63.8034 78.2236 63.8175 78.1899C63.8316 78.1562 63.8522 78.1256 63.8783 78.0998C63.9043 78.0741 63.9352 78.0538 63.9691 78.04C64.0031 78.0263 64.0394 78.0193 64.0761 78.0197H68.5159C68.5525 78.0193 68.5889 78.0263 68.6228 78.04C68.6568 78.0538 68.6876 78.0741 68.7137 78.0998C68.7397 78.1256 68.7603 78.1562 68.7744 78.1899C68.7885 78.2236 68.7958 78.2598 68.7958 78.2963C68.7958 78.3329 68.7885 78.3691 68.7744 78.4028C68.7603 78.4365 68.7397 78.4671 68.7137 78.4928C68.6876 78.5186 68.6568 78.5389 68.6228 78.5527C68.5889 78.5664 68.5525 78.5733 68.5159 78.573Z" fill="white"/>
<path d="M68.5159 80.7865H64.0761C64.0394 80.7868 64.003 80.7799 63.9691 80.7662C63.9351 80.7524 63.9042 80.7321 63.8781 80.7064C63.8521 80.6806 63.8314 80.65 63.8173 80.6163C63.8032 80.5825 63.7959 80.5463 63.7959 80.5098C63.7959 80.4732 63.8032 80.437 63.8173 80.4033C63.8314 80.3696 63.8521 80.3389 63.8781 80.3132C63.9042 80.2875 63.9351 80.2672 63.9691 80.2534C64.003 80.2397 64.0394 80.2328 64.0761 80.2331H68.5159C68.5525 80.2328 68.5889 80.2397 68.6229 80.2534C68.6568 80.2672 68.6877 80.2875 68.7138 80.3132C68.7398 80.3389 68.7605 80.3696 68.7746 80.4033C68.7887 80.437 68.796 80.4732 68.796 80.5098C68.796 80.5463 68.7887 80.5825 68.7746 80.6163C68.7605 80.65 68.7398 80.6806 68.7138 80.7064C68.6877 80.7321 68.6568 80.7524 68.6229 80.7662C68.5889 80.7799 68.5525 80.7868 68.5159 80.7865Z" fill="white"/>
<path d="M188.751 112.355C189.006 112.204 189.225 112 189.393 111.756C189.56 111.512 189.672 111.235 189.721 110.943C189.769 110.652 189.752 110.353 189.672 110.068C189.592 109.784 189.451 109.52 189.257 109.296L192.88 103.084L189.141 103.294L186.274 109.161C185.918 109.509 185.703 109.976 185.669 110.473C185.635 110.969 185.785 111.461 186.09 111.855C186.395 112.248 186.835 112.517 187.325 112.609C187.816 112.701 188.323 112.611 188.751 112.355V112.355Z" fill="#FFB6B6"/>
<path d="M190.213 107.788L186.865 105.188L192.948 93.4354L190.669 78.4684C190.556 77.7285 190.608 76.9731 190.821 76.2556C191.035 75.5381 191.404 74.8762 191.902 74.3168C192.401 73.7575 193.016 73.3144 193.706 73.0191C194.396 72.7238 195.142 72.5835 195.892 72.6081C197.247 72.6541 198.528 73.234 199.454 74.2207C200.381 75.2074 200.877 76.5202 200.834 77.8711L200.27 94.9131L190.213 107.788Z" fill="#CCCCCC"/>
<path d="M28.4223 104.577C28.6331 104.366 28.7949 104.111 28.8963 103.83C28.9977 103.55 29.0362 103.251 29.0091 102.954C28.9819 102.657 28.8899 102.37 28.7394 102.112C28.5889 101.855 28.3836 101.633 28.1379 101.464L31.3935 85.3407L27.7983 86.4916L25.1924 102.087C24.9336 102.517 24.8422 103.027 24.9353 103.52C25.0285 104.013 25.2999 104.455 25.698 104.762C26.0961 105.069 26.5933 105.22 27.0954 105.186C27.5975 105.151 28.0696 104.935 28.4223 104.577H28.4223Z" fill="#9E616A"/>
<path d="M33.2293 70.4651L30.9987 68.7862C30.9987 68.7862 29.0309 68.6473 28.6824 72.1855C28.3339 75.7237 27.6183 82.6192 27.6183 82.6192L24.205 98.3821L28.9299 99.4161L32.5858 82.4052L34.779 77.3536L33.2293 70.4651Z" fill="#CCCCCC"/>
<path d="M29.5518 96.2042L42.1215 95.9953L43.169 87.4311H29.5518V96.2042Z" fill="#9E616A"/>
<path d="M40.8644 148.905H43.7662L45.1466 137.745L40.8638 137.746L40.8644 148.905Z" fill="#9E616A"/>
<path d="M22.6854 149.173L25.5872 149.153L26.8891 137.984L23.1152 138.847L22.6854 149.173Z" fill="#9E616A"/>
<path d="M31.7611 80.0559L31.1036 81.7602L31.235 83.4648L44.103 87.9087L43.4647 80.4491L42.0181 78.7445L31.7611 80.0559Z" fill="#FFB6B6"/>
<path d="M37.2816 64.7169C39.8199 64.7169 41.8776 62.6653 41.8776 60.1344C41.8776 57.6035 39.8199 55.5519 37.2816 55.5519C34.7433 55.5519 32.6857 57.6035 32.6857 60.1344C32.6857 62.6653 34.7433 64.7169 37.2816 64.7169Z" fill="#9E616A"/>
<path d="M40.1447 147.478L44.7318 147.205V149.165L49.0929 152.168C49.3083 152.316 49.4705 152.529 49.5559 152.776C49.6413 153.023 49.6453 153.29 49.5674 153.539C49.4895 153.788 49.3337 154.006 49.1229 154.161C48.912 154.316 48.6571 154.399 48.3953 154.399H42.9342L41.9929 152.461L41.6254 154.399H39.5663L40.1447 147.478Z" fill="#2F2E41"/>
<path d="M21.6928 147.753L26.2779 147.448L26.2916 149.407L30.6737 152.38C30.8901 152.527 31.0538 152.739 31.1409 152.985C31.228 153.231 31.2339 153.498 31.1578 153.748C31.0816 153.998 30.9274 154.217 30.7176 154.373C30.5079 154.529 30.2535 154.614 29.9918 154.616L24.5308 154.654L23.5759 152.722L23.222 154.663L21.163 154.678L21.6928 147.753Z" fill="#2F2E41"/>
<path d="M21.7825 140.617L23.8955 123.777L26.4094 106.022C24.5684 102.613 28.7138 92.0266 28.7138 92.0266L29.299 92.0546L42.5433 94.5459L42.5404 94.5332C45.2493 101.9 46.1468 105.539 45.9983 113.385L45.4647 141.586H45.6321C45.9099 141.586 46.1763 141.696 46.3727 141.892C46.5692 142.087 46.6796 142.353 46.6796 142.63C46.6796 142.907 46.5692 143.173 46.3727 143.369C46.1763 143.564 45.9099 143.674 45.6321 143.674H40.3947C40.257 143.675 40.1206 143.648 39.9933 143.595C39.866 143.543 39.7504 143.466 39.6529 143.369C39.5554 143.272 39.4781 143.157 39.4254 143.03C39.3726 142.903 39.3455 142.767 39.3455 142.63C39.3455 142.493 39.3726 142.357 39.4254 142.23C39.4781 142.103 39.5554 141.988 39.6529 141.891C39.7504 141.794 39.866 141.717 39.9933 141.665C40.1206 141.612 40.257 141.585 40.3947 141.586H40.5298L35.7225 108.006L31.6467 122.106L27.0379 140.487C28.7138 140.07 28.4536 141.037 28.4536 141.586C28.4536 141.863 28.3432 142.128 28.1468 142.324C27.9504 142.52 27.6839 142.63 27.4061 142.63H22.1688C21.9252 142.63 21.6892 142.546 21.5013 142.391C21.3135 142.236 21.1857 142.021 21.14 141.783C21.0942 141.544 21.1333 141.297 21.2506 141.084C21.3679 140.871 21.556 140.706 21.7825 140.617H21.7825Z" fill="#2F2E41"/>
<path d="M27.6826 92.575L28.1016 88.3973C28.1451 88.2269 28.2416 88.0746 28.3773 87.9622C28.5129 87.8498 28.6808 87.7832 28.8568 87.7718C29.0314 85.7817 29.7659 77.1963 29.8098 76.8219L29.8115 76.8061L30.1455 69.692C30.1576 69.4336 30.2648 69.1888 30.4465 69.0042C30.6282 68.8196 30.8718 68.7083 31.1306 68.6914L32.8947 68.5764C32.9189 68.5756 32.9419 68.5654 32.9587 68.5481C32.9755 68.5307 32.9849 68.5075 32.9849 68.4834C32.9849 68.2892 33.0233 68.0968 33.0979 67.9173C33.1724 67.7379 33.2817 67.5748 33.4194 67.4375C33.5572 67.3001 33.7207 67.1911 33.9007 67.1168C34.0807 67.0425 34.2736 67.0042 34.4684 67.0042H39.6914C40.0297 67.0043 40.3563 67.1276 40.6099 67.3508C40.8635 67.574 41.0268 67.8818 41.0689 68.2165C41.0712 68.2396 41.0822 68.2609 41.0996 68.2762C41.117 68.2916 41.1395 68.2998 41.1628 68.2993H41.1634C41.7568 68.2871 42.335 68.4874 42.793 68.8639C43.251 69.2405 43.5585 69.7682 43.6596 70.3514C44.3736 74.4937 45.8046 83.8953 45.0971 89.122C44.8508 90.9415 45.3818 89.5004 45.4749 91.0228C45.4842 91.1699 45.4642 91.3174 45.4162 91.4568C45.3682 91.5962 45.293 91.7248 45.1951 91.8353C45.3956 91.9079 45.5593 92.0565 45.6506 92.2488C45.7419 92.441 45.7535 92.6614 45.6828 92.8622L45.7746 92.8395C45.7477 92.9459 45.7001 93.046 45.6344 93.134C45.5687 93.222 45.4863 93.2963 45.3918 93.3526C45.2973 93.4088 45.1927 93.446 45.0838 93.4619C44.9749 93.4779 44.8639 93.4723 44.7572 93.4454L31.0928 95.2916C30.644 95.1788 27.5694 93.0224 27.6826 92.575Z" fill="#CCCCCC"/>
<path d="M64.1958 75.5896C64.1102 75.8751 63.9628 76.1385 63.7641 76.3612C63.5654 76.5838 63.3201 76.7603 63.0455 76.8782C62.771 76.9961 62.4739 77.0525 62.1751 77.0436C61.8763 77.0346 61.5831 76.9604 61.3162 76.8262L56.0336 81.6331L55.3322 77.9338L60.4595 73.9481C60.7153 73.5159 61.1212 73.1923 61.6003 73.0386C62.0793 72.8849 62.5983 72.9118 63.0589 73.1141C63.5194 73.3165 63.8895 73.6802 64.0991 74.1365C64.3086 74.5927 64.343 75.1097 64.1958 75.5896H64.1958Z" fill="#9E616A"/>
<path d="M45.8093 71.9153C45.8093 71.9153 43.9673 67.7647 41.6409 68.5898C39.3144 69.4148 40.5156 73.4419 40.5156 73.4419L49.2562 86.5744C49.2562 86.5744 61.8634 78.5106 60.3304 78.4537C58.7973 78.3967 58.3388 75.6166 58.3388 75.6166L51.6756 78.9362L51.4502 77.7544L51.0888 78.1147L50.1564 77.383L45.8093 71.9153Z" fill="#CCCCCC"/>
<path d="M196.49 67.3558C200.034 67.3558 202.907 64.4913 202.907 60.9579C202.907 57.4245 200.034 54.5601 196.49 54.5601C192.946 54.5601 190.074 57.4245 190.074 60.9579C190.074 64.4913 192.946 67.3558 196.49 67.3558Z" fill="#FFB6B6"/>
<path d="M217.083 70.3722C216.343 71.4185 215.262 72.1772 214.024 72.5195C213.529 72.6665 213.018 72.7531 212.502 72.7774C212.438 72.1954 212.285 71.6266 212.049 71.0906C212.073 71.6611 211.993 72.2312 211.814 72.7735C211.039 72.7296 210.281 72.5272 209.588 72.1788C208.907 71.8372 208.315 71.3421 207.86 70.7328C207.404 70.1234 207.097 69.4166 206.963 68.6684C206.691 66.9184 207.487 65.2001 207.775 63.4528C208.064 61.7055 207.521 59.4924 205.806 59.0332C204.5 58.6832 204.646 58.8345 203.56 59.6384C204.69 61.3039 200.517 67.4072 198.81 66.875C197.844 66.5741 197.226 65.6908 197.027 65.6908C195.685 67.996 198.212 71.8801 195.665 72.6866L195.875 72.4774C197.412 70.592 194.199 66.6013 195.736 64.7159C196.165 64.1883 196.622 63.5633 196.495 62.8962C196.375 62.262 195.365 61.9265 195.07 62.4475C195.602 61.2331 194.816 59.6121 193.517 59.3003C192.362 59.0226 192.383 59.3647 191.224 59.5134C191.149 59.0142 191.007 58.5271 190.804 58.0648C190.825 58.5629 190.766 59.0612 190.631 59.541C190.221 59.5331 189.826 59.3906 189.506 59.1358C188.562 58.3766 188.753 56.7819 189.596 55.9122C190.441 55.0425 191.696 54.7294 192.892 54.5267C193.24 52.1109 199.925 51.8589 200.811 54.2728C201.189 52.4702 203.452 51.5348 205.211 52.094C206.97 52.6532 208.191 54.2913 208.833 56.0175C209.476 57.7424 209.655 59.599 210.051 61.3963C210.447 63.1936 211.116 65.0237 212.494 66.2487C213.871 67.4723 216.116 67.8776 217.568 66.7408C217.779 67.3415 217.845 67.9833 217.761 68.6142C217.676 69.2451 217.444 69.8474 217.083 70.3722Z" fill="#2F2E41"/>
<path d="M277.283 84.9723L276.384 89.4662C276.317 89.8098 276.246 90.1595 276.169 90.5061C275.418 90.3509 274.64 90.3943 273.911 90.6319C274.489 91.4558 275.007 92.3199 275.461 93.2178C274.895 94.9571 274.065 96.5644 272.674 97.727C271.745 98.4862 270.636 98.994 269.453 99.2014C268.27 99.4088 267.054 99.3088 265.921 98.9111L265.961 98.7332C264.466 95.8405 265.278 92.1932 267.136 89.5214C268.084 88.2033 269.207 87.0197 270.474 86.003C271.73 84.9601 273.086 84.0245 274.431 83.1012C274.733 82.8941 275.09 82.7815 275.456 82.7778C275.823 82.7741 276.182 82.8794 276.488 83.0802C276.794 83.2811 277.033 83.5684 277.175 83.9054C277.316 84.2425 277.354 84.6139 277.283 84.9723Z" fill="#E4E4E4"/>
<path d="M266.241 109.724C265.863 106.978 265.474 104.196 265.739 101.421C265.975 98.9555 266.729 96.5478 268.265 94.5736C269.08 93.5276 270.072 92.6315 271.196 91.9254C271.489 91.7413 271.758 92.2042 271.467 92.3877C269.522 93.6131 268.018 95.4227 267.171 97.5555C266.236 99.9273 266.086 102.513 266.248 105.032C266.346 106.556 266.552 108.069 266.76 109.581C266.777 109.65 266.767 109.722 266.732 109.783C266.697 109.845 266.64 109.89 266.573 109.911C266.504 109.929 266.431 109.92 266.369 109.885C266.307 109.85 266.262 109.792 266.242 109.724L266.241 109.724Z" fill="#F2F2F2"/>
<path d="M287.634 154.906L0.366306 155C0.269338 155 0.176439 154.961 0.107971 154.893C0.0395036 154.824 0.00105286 154.731 0.00105286 154.635C0.00105286 154.538 0.0395036 154.445 0.107971 154.377C0.176439 154.308 0.269338 154.27 0.366306 154.27L287.634 154.175C287.731 154.176 287.824 154.214 287.892 154.283C287.96 154.351 287.999 154.444 287.999 154.54C287.999 154.637 287.96 154.73 287.892 154.798C287.824 154.867 287.731 154.905 287.634 154.906Z" fill="#CACACA"/>
<path d="M31.8724 57.3285C31.1675 57.6658 30.3785 57.1584 29.77 56.6556L29.9876 56.843C28.9121 57.8864 28.4092 59.3875 28.1635 60.8652C27.9176 62.3413 27.8902 63.851 27.5805 65.3166C27.2706 66.7807 26.6277 68.2518 25.4269 69.1485C23.8182 70.3496 21.5995 70.2725 19.6253 69.9043C19.599 69.899 19.5745 69.8949 19.5482 69.8896C20.0794 68.3604 20.2953 66.7399 20.183 65.1254C19.6538 66.7433 18.753 68.2156 17.5522 69.425C16.2433 69.0658 14.9657 68.6016 13.7319 68.037C12.9336 67.6706 12.074 67.1696 11.8524 66.3214C11.6303 65.4795 12.1461 64.5965 12.8358 64.065C13.5255 63.5334 14.372 63.2561 15.1577 62.8774C15.9422 62.5005 16.7184 61.9631 17.0325 61.1518C17.757 59.2855 15.6933 57.144 16.4975 55.3095C16.8941 54.4073 17.8656 53.9166 18.7786 53.5383C20.1725 52.9623 21.6039 52.4809 23.0629 52.0974C24.3437 51.7606 25.681 51.4988 26.9858 51.7196C28.2905 51.9404 29.5688 52.7317 30.0384 53.9672C30.8219 54.2312 31.6538 54.5288 32.1566 55.1864C32.6592 55.8425 32.6187 56.9719 31.8724 57.3285Z" fill="#2F2E41"/>
<path d="M38.1443 55.1659C36.1278 53.5786 34.4974 53.8496 33.2396 54.8357C33.0282 54.6012 32.1284 55.2464 31.8237 55.1537L30.7217 57.2164C30.1547 58.2141 29.922 59.2325 30.0137 59.8057C28.9707 62.7223 31.4441 64.6918 34.3692 65.7317C35.5364 66.1496 36.8099 66.168 37.9888 65.784L38.0247 65.287L38.2462 65.6943C38.2462 65.6943 40.9203 71.1844 41.5522 71.4309C41.1688 70.4392 40.1575 65.7258 39.8753 64.7433C39.4882 63.4065 39.7526 61.2827 39.9801 59.9806C40.1219 59.1779 40.1293 58.3572 40.0021 57.552L39.9964 57.5168L40.6221 58.7762L42.0259 57.896C41.4894 56.3379 41.4787 54.474 38.1443 55.1659Z" fill="#2F2E41"/>
</svg>
