<svg width="25" height="25" viewBox="0 0 25 25" fill="none" xmlns="http://www.w3.org/2000/svg">
<path d="M11.9986 5.83594C10.3635 5.83594 8.79532 6.4855 7.6391 7.64172C6.48287 8.79795 5.83331 10.3661 5.83331 12.0013C5.83331 13.6364 6.48287 15.2046 7.6391 16.3608C8.79532 17.517 10.3635 18.1666 11.9986 18.1666C13.6338 18.1666 15.202 17.517 16.3582 16.3608C17.5144 15.2046 18.164 13.6364 18.164 12.0013C18.164 10.3661 17.5144 8.79795 16.3582 7.64172C15.202 6.4855 13.6338 5.83594 11.9986 5.83594ZM11.9986 16.0053C10.9364 16.0053 9.91759 15.5833 9.16645 14.8321C8.4153 14.081 7.99331 13.0622 7.99331 11.9999C7.99331 10.9377 8.4153 9.91889 9.16645 9.16774C9.91759 8.41659 10.9364 7.9946 11.9986 7.9946C13.0609 7.9946 14.0797 8.41659 14.8308 9.16774C15.582 9.91889 16.004 10.9377 16.004 11.9999C16.004 13.0622 15.582 14.081 14.8308 14.8321C14.0797 15.5833 13.0609 16.0053 11.9986 16.0053Z" fill="white"/>
<path d="M18.408 7.04679C19.2018 7.04679 19.8453 6.40327 19.8453 5.60945C19.8453 4.81563 19.2018 4.17212 18.408 4.17212C17.6142 4.17212 16.9706 4.81563 16.9706 5.60945C16.9706 6.40327 17.6142 7.04679 18.408 7.04679Z" fill="white"/>
<path d="M23.3774 4.14792C23.0687 3.35083 22.597 2.62697 21.9925 2.02267C21.3879 1.41837 20.6639 0.946953 19.8667 0.638592C18.9338 0.288401 17.9483 0.0990466 16.952 0.0785917C15.668 0.0225917 15.2614 0.0065918 12.0054 0.0065918C8.74935 0.0065918 8.33202 0.00659166 7.05869 0.0785917C6.0632 0.0980008 5.07836 0.287394 4.14669 0.638592C3.34927 0.946594 2.62504 1.41789 2.02046 2.02223C1.41589 2.62657 0.944323 3.35062 0.636019 4.14792C0.285758 5.08074 0.0968382 6.06637 0.0773522 7.06259C0.0200189 8.34526 0.00268555 8.75192 0.00268555 12.0093C0.00268555 15.2653 0.00268554 15.6799 0.0773522 16.9559C0.0973522 17.9533 0.285352 18.9373 0.636019 19.8719C0.945189 20.6689 1.41721 21.3927 2.02193 21.997C2.62665 22.6012 3.35077 23.0727 4.14802 23.3813C5.07793 23.7455 6.06318 23.9484 7.06135 23.9813C8.34535 24.0373 8.75202 24.0546 12.008 24.0546C15.264 24.0546 15.6814 24.0546 16.9547 23.9813C17.9508 23.961 18.9363 23.7721 19.8694 23.4226C20.6664 23.1135 21.3902 22.6417 21.9946 22.0372C22.5991 21.4328 23.0709 20.7089 23.38 19.9119C23.7307 18.9786 23.9187 17.9946 23.9387 16.9973C23.996 15.7146 24.0134 15.3079 24.0134 12.0506C24.0134 8.79326 24.0134 8.37992 23.9387 7.10392C23.9232 6.09362 23.7333 5.09359 23.3774 4.14792ZM21.7534 16.8573C21.7448 17.6257 21.6045 18.3869 21.3387 19.1079C21.1385 19.6264 20.8319 20.0973 20.4388 20.4902C20.0456 20.8831 19.5746 21.1893 19.056 21.3893C18.343 21.6539 17.5898 21.7941 16.8294 21.8039C15.5627 21.8626 15.2054 21.8773 11.9574 21.8773C8.70669 21.8773 8.37469 21.8773 7.08402 21.8039C6.32392 21.7946 5.57112 21.6543 4.85869 21.3893C4.33827 21.1906 3.86535 20.8848 3.47054 20.4919C3.07572 20.0989 2.7678 19.6274 2.56669 19.1079C2.30461 18.3947 2.16443 17.6424 2.15202 16.8826C2.09469 15.6159 2.08135 15.2586 2.08135 12.0106C2.08135 8.76126 2.08135 8.42926 2.15202 7.13726C2.16064 6.36929 2.30089 5.60848 2.56669 4.88792C2.97335 3.83592 3.80669 3.00792 4.85869 2.60526C5.57147 2.34144 6.32405 2.20121 7.08402 2.19059C8.35202 2.13326 8.70802 2.11726 11.9574 2.11726C15.2067 2.11726 15.54 2.11726 16.8294 2.19059C17.5899 2.19974 18.3432 2.34002 19.056 2.60526C19.5746 2.80562 20.0455 3.11219 20.4386 3.5053C20.8318 3.8984 21.1383 4.36935 21.3387 4.88792C21.6008 5.60119 21.7409 6.35347 21.7534 7.11326C21.8107 8.38126 21.8254 8.73726 21.8254 11.9866C21.8254 15.2346 21.8254 15.5839 21.768 16.8586H21.7534V16.8573Z" fill="white"/>
</svg>
