<svg width="128" height="128" viewBox="0 0 128 128" fill="none" xmlns="http://www.w3.org/2000/svg">
<path d="M119.781 0.963142C94.8279 6.21383 69.6733 18.7164 53.9966 33.6687L52.0969 35.4944H49.1972C37.1458 35.4944 22.7682 40.7203 11.2656 49.2972C6.71451 52.6976 1.23887 57.6492 0.66413 58.8741C-0.0614474 60.3967 0.262332 61.9974 1.56265 63.1482C1.86302 63.4486 6.73791 66.2482 12.3891 69.3741C18.0403 72.5001 22.7409 75.1502 22.841 75.2503C22.9659 75.3504 22.5407 76.4258 21.9165 77.6507C20.9907 79.4009 20.7657 80.1005 20.7657 81.1017V82.3513L32.5921 94.2531C39.0677 100.779 44.7696 106.405 45.1948 106.73C46.395 107.605 48.0945 107.38 50.4962 106.029C51.5208 105.454 52.4714 105.029 52.5962 105.078C52.721 105.103 55.4218 109.83 58.6219 115.555C61.7972 121.28 64.6475 126.232 64.8972 126.506C66.022 127.756 67.6474 128.081 69.1479 127.357C70.5484 126.706 76.2737 120.18 79.7741 115.255C87.775 104.052 92.5264 90.451 92.5264 78.8235V75.9238L94.2272 74.1489C105.679 62.0469 115.731 44.7188 122.181 25.8668C125.157 17.2405 128.058 5.18917 127.682 3.13857C127.357 1.46376 125.782 0.212852 123.981 0.263565C123.532 0.263565 121.631 0.587349 119.781 0.963142ZM119.282 9.21366C119.282 10.4893 115.082 24.4664 113.731 27.6665L113.381 28.4662L106.455 21.5407L99.5039 14.5892L103.579 13.1887C108.78 11.3891 109.58 11.1134 114.281 9.83781C118.732 8.61421 119.282 8.5388 119.282 9.21366ZM101.279 26.8668L110.38 35.9677L108.079 40.5942C95.6276 65.7736 80.0251 81.2759 50.8707 97.4532C49.3454 98.3036 47.9957 99.0032 47.8709 99.0032C47.5458 99.0032 29.0176 80.4255 29.0176 80.1005C29.0176 79.6753 35.1433 69.0738 37.744 65.0233C51.396 43.6695 65.6241 30.743 87.277 19.9907C89.7775 18.7658 91.9022 17.7398 91.9776 17.7398C92.0777 17.7411 96.2531 21.841 101.279 26.8668ZM44.7696 43.0947C44.7696 43.1454 44.0193 44.07 43.1195 45.1453C38.7192 50.396 33.4425 57.8975 29.0423 65.1988L26.7173 68.9996L25.9423 68.525C25.4924 68.2754 21.8411 66.2495 17.8413 63.9986C13.8155 61.7738 10.4646 59.848 10.3905 59.7479C10.1655 59.3734 14.8415 55.6467 18.7919 53.0213C24.7174 49.071 31.219 46.0959 37.3695 44.4705C40.7698 43.594 44.7696 42.8451 44.7696 43.0947ZM84.5255 86.1508C83.0756 94.2518 79.9003 101.928 74.8993 109.38C72.6731 112.731 68.7227 117.756 68.3235 117.756C68.2234 117.756 66.4979 114.731 64.4733 111.056C62.4227 107.38 60.3721 103.679 59.8975 102.83L59.0471 101.28L61.848 99.6052C68.9243 95.3545 76.4999 90.1038 81.8507 85.7282C83.5008 84.3525 84.9013 83.2784 84.9507 83.3278C84.9767 83.376 84.8012 84.6516 84.5255 86.1508Z" fill="#425BA8"/>
<path d="M82.8507 28.5923C77.1995 29.968 72.9748 35.0939 72.599 40.9947C72.0984 49.0957 78.8496 55.9224 86.9012 55.4217C95.3272 54.8964 101.203 47.2206 99.5026 38.9441C98.5026 34.1433 94.4261 29.8679 89.6266 28.643C87.801 28.1671 84.6763 28.1424 82.8507 28.5923ZM88.9024 36.1432C90.1273 36.718 91.3028 37.8935 91.9035 39.1431C92.6031 40.5435 92.5784 43.269 91.8528 44.6434C90.5278 47.1439 87.6528 48.5691 85.0274 48.0437C82.4775 47.4937 80.527 45.5432 79.977 42.9933C79.3515 39.8933 81.302 36.7674 84.5281 35.7167C85.476 35.3929 87.8517 35.6439 88.9024 36.1432Z" fill="#425BA8"/>
<path d="M16.6411 89.8516C16.2406 90.0518 12.6401 93.4522 8.68969 97.4272C2.01386 104.129 1.46252 104.755 1.33769 105.704C1.06332 107.704 2.68742 109.204 4.81344 108.93C5.78868 108.805 6.33871 108.304 13.0653 101.579C18.091 96.5534 20.3418 94.1283 20.5408 93.5276C21.3158 91.2026 18.8413 88.8517 16.6411 89.8516Z" fill="#425BA8"/>
<path d="M18.1404 105.779C17.3654 106.204 3.76279 119.807 3.36359 120.557C2.23882 122.708 4.23871 125.333 6.6638 124.908C7.51421 124.759 8.51415 123.833 14.9403 117.433C21.3418 111.006 22.2663 110.006 22.4158 109.156C22.841 106.805 20.1663 104.679 18.1404 105.779Z" fill="#425BA8"/>
<path d="M33.8937 107.73C33.4932 107.979 29.9681 111.406 26.0918 115.305C19.0402 122.382 19.0155 122.406 19.0155 123.457C19.0155 124.907 19.5655 125.857 20.6656 126.383C22.5914 127.283 22.6655 127.233 30.5922 119.331C34.5426 115.381 37.9182 111.905 38.0691 111.655C38.4696 110.93 38.3434 109.38 37.8688 108.605C37.3942 107.879 36.1433 107.255 35.2188 107.255C34.8937 107.255 34.3189 107.48 33.8937 107.73Z" fill="#425BA8"/>
</svg>
