<svg width="30" height="22" viewBox="0 0 30 22" fill="none" xmlns="http://www.w3.org/2000/svg">
<path d="M17.6667 10.9999L13 13.6666V8.33325L17.6667 10.9999Z" fill="white" stroke="white" stroke-width="1.5" stroke-linecap="round" stroke-linejoin="round"/>
<path d="M1.66669 11.9433V10.0565C1.66669 6.19607 1.66669 4.26586 2.87401 3.0239C4.08134 1.78194 5.9821 1.72818 9.78361 1.62066C11.585 1.56971 13.4251 1.5332 15 1.5332C16.575 1.5332 18.4151 1.56971 20.2164 1.62066C24.0179 1.72818 25.9187 1.78194 27.126 3.0239C28.3334 4.26586 28.3334 6.19607 28.3334 10.0565V11.9433C28.3334 15.8037 28.3334 17.734 27.126 18.9759C25.9187 20.2179 24.018 20.2716 20.2166 20.3792C18.4151 20.4301 16.575 20.4667 15 20.4667C13.4251 20.4667 11.5849 20.4301 9.78349 20.3792C5.98203 20.2716 4.08131 20.2179 2.87399 18.9759C1.66669 17.734 1.66669 15.8037 1.66669 11.9433Z" stroke="white" stroke-width="2.2"/>
</svg>
